0
SECTION
2
HEADER
9
$INSUNITS
70
4
9
$ACADVER
1
AC1014
9
$HANDSEED
5
FFFF
0
ENDSEC
0
SECTION
2
TABLES
0
TABLE
2
VPORT
5
8
100
AcDbSymbolTable
0
ENDTAB
0
TABLE
2
LTYPE
5
5
100
AcDbSymbolTable
0
LTYPE
5
14
100
AcDbSymbolTableRecord
100
AcDbLinetypeTableRecord
2
BYBLOCK
70
0
0
LTYPE
5
15
100
AcDbSymbolTableRecord
100
AcDbLinetypeTableRecord
2
BYLAYER
70
0
0
LTYPE
5
16
100
AcDbSymbolTableRecord
100
AcDbLinetypeTableRecord
2
DASHED
70
0
3
Dashed __ __ __ __ __ __ __ __ __ __ __ __ __ _
72
65
73
2
40
0.75
49
0.5
74
0
49
-0.25
74
0
0
ENDTAB
0
TABLE
2
LAYER
5
2
100
AcDbSymbolTable
70
2
0
LAYER
5
50
100
AcDbSymbolTableRecord
100
AcDbLayerTableRecord
2
0
70
0
62
7
6
CONTINUOUS
0
ENDTAB
0
TABLE
2
STYLE
5
3
100
AcDbSymbolTable
70
1
0
STYLE
5
11
100
AcDbSymbolTableRecord
100
AcDbTextStyleTableRecord
2
STANDARD
70
0
0
ENDTAB
0
TABLE
2
VIEW
5
6
100
AcDbSymbolTable
70
0
0
ENDTAB
0
TABLE
2
UCS
5
7
100
AcDbSymbolTable
70
0
0
ENDTAB
0
TABLE
2
APPID
5
9
100
AcDbSymbolTable
70
2
0
APPID
5
12
100
AcDbSymbolTableRecord
100
AcDbRegAppTableRecord
2
ACAD
70
0
0
ENDTAB
0
TABLE
2
DIMSTYLE
5
A
100
AcDbSymbolTable
70
1
0
ENDTAB
0
TABLE
2
BLOCK_RECORD
5
1
100
AcDbSymbolTable
70
1
0
BLOCK_RECORD
5
1F
100
AcDbSymbolTableRecord
100
AcDbBlockTableRecord
2
*MODEL_SPACE
0
BLOCK_RECORD
5
1B
100
AcDbSymbolTableRecord
100
AcDbBlockTableRecord
2
*PAPER_SPACE
0
ENDTAB
0
ENDSEC
0
SECTION
2
BLOCKS
0
BLOCK
5
20
100
AcDbEntity
100
AcDbBlockBegin
2
*MODEL_SPACE
0
ENDBLK
5
21
100
AcDbEntity
100
AcDbBlockEnd
0
BLOCK
5
1C
100
AcDbEntity
100
AcDbBlockBegin
2
*PAPER_SPACE
0
ENDBLK
5
1D
100
AcDbEntity
100
AcDbBlockEnd
0
ENDSEC
0
SECTION
2
ENTITIES
0
SPLINE
5
100
100
AcDbEntity
8
0
100
AcDbSpline
70
6
71
5
72
211
73
205
74
0
42
0.000000001
43
0.0000000001
44
0.0000000001
40
0
40
0
40
0
40
0
40
0
40
0
40
0.0050000000000000001
40
0.01
40
0.014999999999999999
40
0.02
40
0.025000000000000001
40
0.030000000000000002
40
0.035000000000000003
40
0.040000000000000001
40
0.044999999999999998
40
0.049999999999999996
40
0.054999999999999993
40
0.059999999999999991
40
0.064999999999999988
40
0.069999999999999993
40
0.074999999999999997
40
0.080000000000000002
40
0.085000000000000006
40
0.090000000000000011
40
0.095000000000000015
40
0.10000000000000002
40
0.10500000000000002
40
0.11000000000000003
40
0.11500000000000003
40
0.12000000000000004
40
0.12500000000000003
40
0.13000000000000003
40
0.13500000000000004
40
0.14000000000000004
40
0.14500000000000005
40
0.15000000000000005
40
0.15500000000000005
40
0.16000000000000006
40
0.16500000000000006
40
0.17000000000000007
40
0.17500000000000007
40
0.18000000000000008
40
0.18500000000000008
40
0.19000000000000009
40
0.19500000000000009
40
0.20000000000000009
40
0.2050000000000001
40
0.2100000000000001
40
0.21500000000000011
40
0.22000000000000011
40
0.22500000000000012
40
0.23000000000000012
40
0.23500000000000013
40
0.24000000000000013
40
0.24500000000000013
40
0.25000000000000011
40
0.25500000000000012
40
0.26000000000000012
40
0.26500000000000012
40
0.27000000000000013
40
0.27500000000000013
40
0.28000000000000014
40
0.28500000000000014
40
0.29000000000000015
40
0.29500000000000015
40
0.30000000000000016
40
0.30500000000000016
40
0.31000000000000016
40
0.31500000000000017
40
0.32000000000000017
40
0.32500000000000018
40
0.33000000000000018
40
0.33500000000000019
40
0.34000000000000019
40
0.3450000000000002
40
0.3500000000000002
40
0.3550000000000002
40
0.36000000000000021
40
0.36500000000000021
40
0.37000000000000022
40
0.37500000000000022
40
0.38000000000000023
40
0.38500000000000023
40
0.39000000000000024
40
0.39500000000000024
40
0.40000000000000024
40
0.40500000000000025
40
0.41000000000000025
40
0.41500000000000026
40
0.42000000000000026
40
0.42500000000000027
40
0.43000000000000027
40
0.43500000000000028
40
0.44000000000000028
40
0.44500000000000028
40
0.45000000000000029
40
0.45500000000000029
40
0.4600000000000003
40
0.4650000000000003
40
0.47000000000000031
40
0.47500000000000031
40
0.48000000000000032
40
0.48500000000000032
40
0.49000000000000032
40
0.49500000000000033
40
0.50000000000000033
40
0.50500000000000034
40
0.51000000000000034
40
0.51500000000000035
40
0.52000000000000035
40
0.52500000000000036
40
0.53000000000000036
40
0.53500000000000036
40
0.54000000000000037
40
0.54500000000000037
40
0.55000000000000038
40
0.55500000000000038
40
0.56000000000000039
40
0.56500000000000039
40
0.5700000000000004
40
0.5750000000000004
40
0.5800000000000004
40
0.58500000000000041
40
0.59000000000000041
40
0.59500000000000042
40
0.60000000000000042
40
0.60500000000000043
40
0.61000000000000043
40
0.61500000000000044
40
0.62000000000000044
40
0.62500000000000044
40
0.63000000000000045
40
0.63500000000000045
40
0.64000000000000046
40
0.64500000000000046
40
0.65000000000000047
40
0.65500000000000047
40
0.66000000000000048
40
0.66500000000000048
40
0.67000000000000048
40
0.67500000000000049
40
0.68000000000000049
40
0.6850000000000005
40
0.6900000000000005
40
0.69500000000000051
40
0.70000000000000051
40
0.70500000000000052
40
0.71000000000000052
40
0.71500000000000052
40
0.72000000000000053
40
0.72500000000000053
40
0.73000000000000054
40
0.73500000000000054
40
0.74000000000000055
40
0.74500000000000055
40
0.75000000000000056
40
0.75500000000000056
40
0.76000000000000056
40
0.76500000000000057
40
0.77000000000000057
40
0.77500000000000058
40
0.78000000000000058
40
0.78500000000000059
40
0.79000000000000059
40
0.7950000000000006
40
0.8000000000000006
40
0.8050000000000006
40
0.81000000000000061
40
0.81500000000000061
40
0.82000000000000062
40
0.82500000000000062
40
0.83000000000000063
40
0.83500000000000063
40
0.84000000000000064
40
0.84500000000000064
40
0.85000000000000064
40
0.85500000000000065
40
0.86000000000000065
40
0.86500000000000066
40
0.87000000000000066
40
0.87500000000000067
40
0.88000000000000067
40
0.88500000000000068
40
0.89000000000000068
40
0.89500000000000068
40
0.90000000000000069
40
0.90500000000000069
40
0.9100000000000007
40
0.9150000000000007
40
0.92000000000000071
40
0.92500000000000071
40
0.93000000000000071
40
0.93500000000000072
40
0.94000000000000072
40
0.94500000000000073
40
0.95000000000000073
40
0.95500000000000074
40
0.96000000000000074
40
0.96500000000000075
40
0.97000000000000075
40
0.97500000000000075
40
0.98000000000000076
40
0.98500000000000076
40
0.99000000000000077
40
0.99500000000000077
40
1
40
1
40
1
40
1
40
1
40
1
41
1
41
1
41
1
41
1
41
1
41
1
41
1
41
1
41
1
41
1
41
1
41
1
41
1
41
1
41
1
41
1
41
1
41
1
41
1
41
1
41
1
41
1
41
1
41
1
41
1
41
1
41
1
41
1
41
1
41
1
41
1
41
1
41
1
41
1
41
1
41
1
41
1
41
1
41
1
41
1
41
1
41
1
41
1
41
1
41
1
41
1
41
1
41
1
41
1
41
1
41
1
41
1
41
1
41
1
41
1
41
1
41
1
41
1
41
1
41
1
41
1
41
1
41
1
41
1
41
1
41
1
41
1
41
1
41
1
41
1
41
1
41
1
41
1
41
1
41
1
41
1
41
1
41
1
41
1
41
1
41
1
41
1
41
1
41
1
41
1
41
1
41
1
41
1
41
1
41
1
41
1
41
1
41
1
41
1
41
1
41
1
41
1
41
1
41
1
41
1
41
1
41
1
41
1
41
1
41
1
41
1
41
1
41
1
41
1
41
1
41
1
41
1
41
1
41
1
41
1
41
1
41
1
41
1
41
1
41
1
41
1
41
1
41
1
41
1
41
1
41
1
41
1
41
1
41
1
41
1
41
1
41
1
41
1
41
1
41
1
41
1
41
1
41
1
41
1
41
1
41
1
41
1
41
1
41
1
41
1
41
1
41
1
41
1
41
1
41
1
41
1
41
1
41
1
41
1
41
1
41
1
41
1
41
1
41
1
41
1
41
1
41
1
41
1
41
1
41
1
41
1
41
1
41
1
41
1
41
1
41
1
41
1
41
1
41
1
41
1
41
1
41
1
41
1
41
1
41
1
41
1
41
1
41
1
41
1
41
1
41
1
41
1
41
1
41
1
41
1
41
1
41
1
41
1
41
1
41
1
41
1
41
1
41
1
41
1
41
1
41
1
41
1
41
1
41
1
41
1
10
-24.366242557147061
20
0.26067365169896384
30
0
10
-24.283961019169414
20
0.47223641170024055
30
0
10
-24.106107783298398
20
0.88369573406556445
30
0
10
-23.801646107546777
20
1.464927505794944
30
0
10
-23.325637240538409
20
2.1698201704387245
30
0
10
-22.616497102032884
20
2.9585914684338421
30
0
10
-21.791797753701047
20
3.6909941274468872
30
0
10
-20.852797805512651
20
4.4059575818995187
30
0
10
-19.809719156819575
20
5.137267532163083
30
0
10
-18.689176006821995
20
5.9043590636308014
30
0
10
-17.538243437122148
20
6.7063419966295204
30
0
10
-16.413960817481215
20
7.530077612688876
30
0
10
-15.37477552112305
20
8.3563501572919048
30
0
10
-14.47147384026324
20
9.1666133509532397
30
0
10
-13.737776223289194
20
9.9498703599375418
30
0
10
-13.182367118414478
20
10.708612560378823
30
0
10
-12.777058236290792
20
11.467386553459873
30
0
10
-12.461595997043593
20
12.269974256687522
30
0
10
-12.158872416154029
20
13.169439350438273
30
0
10
-11.787372126656894
20
14.220082231820317
30
0
10
-11.273946954149551
20
15.469135204725768
30
0
10
-10.568414557024489
20
16.947292442318204
30
0
10
-9.6505892365307826
20
18.664147821921205
30
0
10
-8.5238423459513264
20
20.61238784808176
30
0
10
-7.2117446270145784
20
22.769980403619243
30
0
10
-5.7534725326609903
20
25.103167197785396
30
0
10
-4.1997445243103302
20
27.56911096138197
30
0
10
-2.6085350162679779
20
30.11868804808347
30
0
10
-1.0408775817088081
20
32.699220427070671
30
0
10
0.44335098993287647
20
35.257225434814792
30
0
10
1.7896813936575053
20
37.741175152801027
30
0
10
2.95318834980828
20
40.10421104649425
30
0
10
3.9029099370876503
20
42.306973327815754
30
0
10
4.6256056250512501
20
44.320160925240806
30
0
10
5.1311192062597852
20
46.127746929573746
30
0
10
5.4525508382727752
20
47.728072851219935
30
0
10
5.6371144317660367
20
49.131112163146497
30
0
10
5.7390054007078177
20
50.356590013651797
30
0
10
5.8115952287305985
20
51.431754807516789
30
0
10
5.8996113631849925
20
52.389314492139022
30
0
10
6.0320270497951185
20
53.265269420123019
30
0
10
6.212942162396673
20
54.09687131575879
30
0
10
6.418813405359721
20
54.920274584147307
30
0
10
6.6113387579961831
20
55.767575345898848
30
0
10
6.747647393225332
20
56.66383966855112
30
0
10
6.7908768562927939
20
57.624403968750791
30
0
10
6.7222937854761717
20
58.651383417565846
30
0
10
6.5434933039828858
20
59.734172524933058
30
0
10
6.2739425190924916
20
60.851746157396278
30
0
10
5.950039501360143
20
61.974381464164068
30
0
10
5.6235053004911553
20
63.065625599587037
30
0
10
5.3601551448624516
20
64.084141699046242
30
0
10
5.238291103511151
20
64.985642287978024
30
0
10
5.3277491326246835
20
65.727431618047532
30
0
10
5.6678836165031328
20
66.273139752437331
30
0
10
6.2481207488285948
20
66.597007296619566
30
0
10
6.9818456429547995
20
66.689320432786374
30
0
10
7.7446776239728674
20
66.551442202463875
30
0
10
8.4173364793405945
20
66.190629554126758
30
0
10
8.9340871169816278
20
65.612746843231818
30
0
10
9.3062186429146259
20
64.82260321329484
30
0
10
9.5844879882078988
20
63.84090807228381
30
0
10
9.8320969173996442
20
62.720028837203301
30
0
10
10.096933881299107
20
61.555795065564318
30
0
10
10.375819212515784
20
60.511670862234368
30
0
10
10.611326753524766
20
59.799893827320318
30
0
10
10.751589833903347
20
59.578636511269167
30
0
10
10.789717990485704
20
59.879587374679851
30
0
10
10.826125455922817
20
60.495608947088101
30
0
10
10.993759782614713
20
61.124496133977772
30
0
10
11.342812249749807
20
61.588755843833439
30
0
10
11.766018334431676
20
61.980629710533478
30
0
10
12.098278693444357
20
62.489898652892691
30
0
10
12.196843607179577
20
63.266925997589631
30
0
10
12.029879527656542
20
64.270541367578844
30
0
10
11.640783375393086
20
65.345465026961904
30
0
10
11.112189330370924
20
66.300778173259715
30
0
10
10.530842085967429
20
66.985785296790709
30
0
10
9.9501633557082645
20
67.372482766548785
30
0
10
9.3601971264948123
20
67.618328611801275
30
0
10
8.7542271665629414
20
67.925426790180637
30
0
10
8.1679808839232226
20
68.440675902775524
30
0
10
7.7682692388650434
20
69.093485994341719
30
0
10
7.7903291099513012
20
69.620156468191979
30
0
10
8.3329626102948335
20
69.793679237882785
30
0
10
9.0983947736703978
20
69.66901859093106
30
0
10
9.5542825795385529
20
69.528569945428529
30
0
10
9.3335528225721358
20
69.642372769792019
30
0
10
8.5949649477286414
20
70.072694690200478
30
0
10
7.7821169713448537
20
70.729503261967636
30
0
10
7.3601273687260829
20
71.449982479934079
30
0
10
7.4978210866758355
20
72.076898377650991
30
0
10
7.9768413712878559
20
72.510096843792809
30
0
10
8.48979772788209
20
72.696174559671206
30
0
10
8.9241976445689453
20
72.632685483436063
30
0
10
9.4051297035964936
20
72.364039842980631
30
0
10
10.05412773853898
20
71.974707244263925
30
0
10
10.773733300452793
20
71.586027729057363
30
0
10
11.314052117776152
20
71.333328104713217
30
0
10
11.442789374770472
20
71.33781239550899
30
0
10
11.116630856265077
20
71.677301274122613
30
0
10
10.506107208409745
20
72.367463219854798
30
0
10
9.861037165693304
20
73.347160512102249
30
0
10
9.4302550528248688
20
74.472163579215348
30
0
10
9.338667254382063
20
75.482932329590369
30
0
10
9.5792044253645123
20
76.086844682979688
30
0
10
10.06416299926199
20
76.096538602728174
30
0
10
10.659143841933659
20
75.570506919156571
30
0
10
11.223660573881629
20
74.896140334540107
30
0
10
11.657315457119735
20
74.494795503261955
30
0
10
11.937757918426319
20
74.610259500933438
30
0
10
12.181466875844663
20
74.988069144195634
30
0
10
12.551168425372087
20
75.142852216169715
30
0
10
13.081812861366704
20
74.898139604447522
30
0
10
13.710014397758597
20
74.334516187653378
30
0
10
14.339688730646698
20
73.635886218570064
30
0
10
14.907581214049904
20
72.94403766825441
30
0
10
15.403022173325375
20
72.30463590201586
30
0
10
15.840199631272887
20
71.712230166724254
30
0
10
16.245055689814045
20
71.125658328725777
30
0
10
16.634119761796867
20
70.497429562113012
30
0
10
17.003217123252647
20
69.791490247517885
30
0
10
17.336781249566041
20
68.983898562166374
30
0
10
17.613890105060499
20
68.066193129747177
30
0
10
17.815291078289043
20
67.047314457685431
30
0
10
17.930756250413612
20
65.957235216306472
30
0
10
17.958259031662635
20
64.83844480027885
30
0
10
17.901803065340591
20
63.735946811298653
30
0
10
17.769703665655662
20
62.687351893049723
30
0
10
17.572749328075119
20
61.713882004415417
30
0
10
17.322246241144981
20
60.808686868723115
30
0
10
17.028670509750434
20
59.933866263016952
30
0
10
16.70177685341018
20
59.036956554191029
30
0
10
16.350407524737456
20
58.063539329214095
30
0
10
15.982421509652845
20
56.971226871479828
30
0
10
15.604570453042975
20
55.743453423425748
30
0
10
15.222402226427729
20
54.402245086189069
30
0
10
14.840269899872826
20
52.995664246942546
30
0
10
14.461338661853638
20
51.586428000547912
30
0
10
14.087594569446399
20
50.24014426124814
30
0
10
13.719848980043047
20
49.013576016715831
30
0
10
13.357752400591565
20
47.943206742358775
30
0
10
12.999785652234067
20
47.032926767030702
30
0
10
12.643312509887998
20
46.24421992884858
30
0
10
12.285240954529753
20
45.512927792766824
30
0
10
11.922669287189764
20
44.764614165954441
30
0
10
11.553479489006913
20
43.92938662695515
30
0
10
11.177092772791699
20
42.959509918997931
30
0
10
10.794659515788192
20
41.836721241401946
30
0
10
10.408404550584194
20
40.56398780040125
30
0
10
10.02117142917279
20
39.160975040404963
30
0
10
9.6358938921972896
20
37.658072013395902
30
0
10
9.2550814326882751
20
36.090913933610437
30
0
10
8.8803385438563751
20
34.494976610143794
30
0
10
8.5117730121077582
20
32.899451410989819
30
0
10
8.147769264167394
20
31.323699101586065
30
0
10
7.785587212696222
20
29.779610052448117
30
0
10
7.4217915138848332
20
28.272758040990684
30
0
10
7.0527520861534096
20
26.80404023649379
30
0
10
6.6751054128730738
20
25.371094169071835
30
0
10
6.2862529649410863
20
23.969843510963749
30
0
10
5.8847965986167772
20
22.595909886258163
30
0
10
5.4711151124977597
20
21.246270879861925
30
0
10
5.0475128352688392
20
19.920202621263634
30
0
10
4.6172927513805631
20
18.618431771879184
30
0
10
4.184027747367665
20
17.342626060155652
30
0
10
3.7507688391770113
20
16.094757024780172
30
0
10
3.3192448084718276
20
14.876502979352914
30
0
10
2.8891478237055828
20
13.688668192816483
30
0
10
2.4571831960989341
20
12.53051421961649
30
0
10
2.0168467785482527
20
11.399383787252438
30
0
10
1.56040167519618
20
10.29122357198907
30
0
10
1.0804756469244909
20
9.2009490392772779
30
0
10
0.57179589085824101
20
8.1228714187380628
30
0
10
0.032893496869855959
20
7.0510980291779832
30
0
10
-0.53224462473556367
20
5.9799440383282052
30
0
10
-1.1123182998556782
20
4.9043391524653588
30
0
10
-1.6924393479897748
20
3.8202537890064376
30
0
10
-2.2581774525681841
20
2.7251284596867027
30
0
10
-2.7993671224324199
20
1.6182961153887985
30
0
10
-3.3142906903085279
20
0.50142165034968067
30
0
10
-3.8130611905072644
20
-0.62109793544109126
30
0
10
-4.3229447501940079
20
-1.7416353465308767
30
0
10
-4.8860728913926588
20
-2.8492213149448311
30
0
10
-5.551126917844984
20
-3.9297475157361754
30
0
10
-6.3666927374222126
20
-4.9660691716528724
30
0
10
-7.3740587732606864
20
-5.938169290068041
30
0
10
-8.5999534696399458
20
-6.8232477769241875
30
0
10
-10.050006198435424
20
-7.5959555141310329
30
0
10
-11.700087281958577
20
-8.2282734872925936
30
0
10
-13.500279588480852
20
-8.6914425792222012
30
0
10
-15.382926735750111
20
-8.9585558396304634
30
0
10
-17.269308145831697
20
-9.0069211664897431
30
0
10
-19.076917872838624
20
-8.8205422312549704
30
0
10
-20.726409372125435
20
-8.3924997350696451
30
0
10
-22.148855656938057
20
-7.7274930752031503
30
0
10
-23.29247575643975
20
-6.8440445375272212
30
0
10
-24.130551533220782
20
-5.777499532944212
30
0
10
-24.66589935363848
20
-4.5806990762666917
30
0
10
-24.921769943899768
20
-3.3154634216817862
30
0
10
-24.93479036949422
20
-2.0454580478155995
30
0
10
-24.784647247606706
20
-1.0719083764077411
30
0
10
-24.599797011164178
20
-0.38568082594202774
30
0
10
-24.448524095124682
20
0.049110891697719886
30
0
10
-24.366242557147061
20
0.26067365169896384
30
0
0
LINE
5
101
100
AcDbEntity
8
0
100
AcDbLine
10
50
20
75
30
0
11
150
21
75
31
0
0
LINE
5
102
100
AcDbEntity
8
0
100
AcDbLine
10
150
20
75
30
0
11
150
21
25
31
0
0
LINE
5
103
100
AcDbEntity
8
0
100
AcDbLine
10
50
20
25
30
0
11
50
21
75
31
0
0
LWPOLYLINE
5
104
100
AcDbEntity
8
0
100
AcDbPolyline
90
4
70
1
43
0.0
10
150
20
25
10
50
20
25
10
50
20
-25
10
150
20
-25
0
ENDSEC
0
SECTION
2
OBJECTS
0
DICTIONARY
5
C
100
AcDbDictionary
3
ACAD_GROUP
350
D
3
ACAD_MLINESTYLE
350
17
0
DICTIONARY
5
D
100
AcDbDictionary
0
DICTIONARY
5
1A
330
C
100
AcDbDictionary
0
DICTIONARY
5
17
100
AcDbDictionary
0
ENDSEC
0
EOF
