0
SECTION
2
HEADER
9
$INSUNITS
70
4
9
$ACADVER
1
AC1014
9
$HANDSEED
5
FFFF
0
ENDSEC
0
SECTION
2
TABLES
0
TABLE
2
VPORT
5
8
100
AcDbSymbolTable
0
ENDTAB
0
TABLE
2
LTYPE
5
5
100
AcDbSymbolTable
0
LTYPE
5
14
100
AcDbSymbolTableRecord
100
AcDbLinetypeTableRecord
2
BYBLOCK
70
0
0
LTYPE
5
15
100
AcDbSymbolTableRecord
100
AcDbLinetypeTableRecord
2
BYLAYER
70
0
0
LTYPE
5
16
100
AcDbSymbolTableRecord
100
AcDbLinetypeTableRecord
2
DASHED
70
0
3
Dashed __ __ __ __ __ __ __ __ __ __ __ __ __ _
72
65
73
2
40
0.75
49
0.5
74
0
49
-0.25
74
0
0
ENDTAB
0
TABLE
2
LAYER
5
2
100
AcDbSymbolTable
70
2
0
LAYER
5
50
100
AcDbSymbolTableRecord
100
AcDbLayerTableRecord
2
0
70
0
62
7
6
CONTINUOUS
0
ENDTAB
0
TABLE
2
STYLE
5
3
100
AcDbSymbolTable
70
1
0
STYLE
5
11
100
AcDbSymbolTableRecord
100
AcDbTextStyleTableRecord
2
STANDARD
70
0
0
ENDTAB
0
TABLE
2
VIEW
5
6
100
AcDbSymbolTable
70
0
0
ENDTAB
0
TABLE
2
UCS
5
7
100
AcDbSymbolTable
70
0
0
ENDTAB
0
TABLE
2
APPID
5
9
100
AcDbSymbolTable
70
2
0
APPID
5
12
100
AcDbSymbolTableRecord
100
AcDbRegAppTableRecord
2
ACAD
70
0
0
ENDTAB
0
TABLE
2
DIMSTYLE
5
A
100
AcDbSymbolTable
70
1
0
ENDTAB
0
TABLE
2
BLOCK_RECORD
5
1
100
AcDbSymbolTable
70
1
0
BLOCK_RECORD
5
1F
100
AcDbSymbolTableRecord
100
AcDbBlockTableRecord
2
*MODEL_SPACE
0
BLOCK_RECORD
5
1B
100
AcDbSymbolTableRecord
100
AcDbBlockTableRecord
2
*PAPER_SPACE
0
ENDTAB
0
ENDSEC
0
SECTION
2
BLOCKS
0
BLOCK
5
20
100
AcDbEntity
100
AcDbBlockBegin
2
*MODEL_SPACE
0
ENDBLK
5
21
100
AcDbEntity
100
AcDbBlockEnd
0
BLOCK
5
1C
100
AcDbEntity
100
AcDbBlockBegin
2
*PAPER_SPACE
0
ENDBLK
5
1D
100
AcDbEntity
100
AcDbBlockEnd
0
ENDSEC
0
SECTION
2
ENTITIES
0
POINT
5
100
100
AcDbEntity
8
0
100
AcDbPoint
10
-2.8066622354439508
20
-64.848051277365002
30
0
0
POINT
5
101
100
AcDbEntity
8
0
100
AcDbPoint
10
-7.1407907365557843
20
-83.678231207189498
30
0
0
POINT
5
102
100
AcDbEntity
8
0
100
AcDbPoint
10
-2.1925433418356022
20
-84.321771296205583
30
0
0
POINT
5
103
100
AcDbEntity
8
0
100
AcDbPoint
10
-0.57040230620836407
20
-67.134931574649528
30
0
0
POINT
5
104
100
AcDbEntity
8
0
100
AcDbPoint
10
-3.2964158312580016
20
-64.093087313729242
30
0
0
POINT
5
105
100
AcDbEntity
8
0
100
AcDbPoint
10
-7.2980140039903851
20
-84.342218833979928
30
0
0
POINT
5
106
100
AcDbEntity
8
0
100
AcDbPoint
10
-2.0353200744010014
20
-83.657783669415153
30
0
0
POINT
5
107
100
AcDbEntity
8
0
100
AcDbPoint
10
-1.0270507289727915
20
-65.365712579996625
30
0
0
POINT
5
108
100
AcDbEntity
8
0
100
AcDbPoint
10
-3.6402746733046643
20
-64.949199063540291
30
0
0
POINT
5
109
100
AcDbEntity
8
0
100
AcDbPoint
10
-3.7641811560666039
20
-65.798448080528104
30
0
0
POINT
5
110
100
AcDbEntity
8
0
100
AcDbPoint
10
-3.6451479478770432
20
-64.949003348802123
30
0
0
POINT
5
111
100
AcDbEntity
8
0
100
AcDbPoint
10
-3.6691176483698662
20
-64.948115094753632
30
0
0
POINT
5
112
100
AcDbEntity
8
0
100
AcDbPoint
10
-2.8397665365252367
20
-65.862305526903157
30
0
0
POINT
5
113
100
AcDbEntity
8
0
100
AcDbPoint
10
-8.5266718332854943
20
-65.04835053921127
30
0
0
POINT
5
114
100
AcDbEntity
8
0
100
AcDbPoint
10
-3.6642164396834698
20
-64.94828672182264
30
0
0
POINT
5
115
100
AcDbEntity
8
0
100
AcDbPoint
10
-3.5212414651233281
20
-64.099754331824158
30
0
0
POINT
5
116
100
AcDbEntity
8
0
100
AcDbPoint
10
15.173101359974677
20
-65.862305526903157
30
0
0
POINT
5
117
100
AcDbEntity
8
0
100
AcDbPoint
10
15.997551263132914
20
-64.94828672182264
30
0
0
POINT
5
118
100
AcDbEntity
8
0
100
AcDbPoint
10
33.237070462991156
20
-67.134931574649528
30
0
0
POINT
5
119
100
AcDbEntity
8
0
100
AcDbPoint
10
41.193339990068274
20
-65.04835053921127
30
0
0
POINT
5
120
100
AcDbEntity
8
0
100
AcDbPoint
10
13.360385552422231
20
-65.365712579996625
30
0
0
POINT
5
121
100
AcDbEntity
8
0
100
AcDbPoint
10
15.978482771326483
20
-64.949003348802123
30
0
0
POINT
5
122
100
AcDbEntity
8
0
100
AcDbPoint
10
15.973609496754104
20
-64.949199063540291
30
0
0
POINT
5
123
100
AcDbEntity
8
0
100
AcDbPoint
10
39.964682160773172
20
-84.342218833979928
30
0
0
POINT
5
124
100
AcDbEntity
8
0
100
AcDbPoint
10
12.903737129657804
20
-67.134931574649528
30
0
0
POINT
5
125
100
AcDbEntity
8
0
100
AcDbPoint
10
15.629750654707442
20
-64.093087313729242
30
0
0
POINT
5
126
100
AcDbEntity
8
0
100
AcDbPoint
10
34.701988231183776
20
-83.657783669415153
30
0
0
POINT
5
127
100
AcDbEntity
8
0
100
AcDbPoint
10
35.963083988040793
20
-64.093087313729242
30
0
0
POINT
5
128
100
AcDbEntity
8
0
100
AcDbPoint
10
14.368654897850446
20
-83.657783669415153
30
0
0
POINT
5
129
100
AcDbEntity
8
0
100
AcDbPoint
10
36.187909621906115
20
-64.099754331824158
30
0
0
POINT
5
130
100
AcDbEntity
8
0
100
AcDbPoint
10
16.097515979516047
20
-65.798448080528104
30
0
0
POINT
5
131
100
AcDbEntity
8
0
100
AcDbPoint
10
34.859211498618386
20
-84.321771296205583
30
0
0
POINT
5
132
100
AcDbEntity
8
0
100
AcDbPoint
10
36.330884596466248
20
-64.94828672182264
30
0
0
POINT
5
133
100
AcDbEntity
8
0
100
AcDbPoint
10
19.474125560005227
20
-83.678231207189498
30
0
0
POINT
5
134
100
AcDbEntity
8
0
100
AcDbPoint
10
35.506434693308016
20
-65.862305526903157
30
0
0
POINT
5
135
100
AcDbEntity
8
0
100
AcDbPoint
10
36.335785805152653
20
-64.948115094753632
30
0
0
POINT
5
136
100
AcDbEntity
8
0
100
AcDbPoint
10
15.139997058893391
20
-64.848051277365002
30
0
0
POINT
5
137
100
AcDbEntity
8
0
100
AcDbPoint
10
20.860006656734935
20
-65.04835053921127
30
0
0
POINT
5
138
100
AcDbEntity
8
0
100
AcDbPoint
10
14.525878165285038
20
-84.321771296205583
30
0
0
POINT
5
139
100
AcDbEntity
8
0
100
AcDbPoint
10
19.631348827439822
20
-84.342218833979928
30
0
0
POINT
5
140
100
AcDbEntity
8
0
100
AcDbPoint
10
15.854576288572764
20
-64.099754331824158
30
0
0
POINT
5
141
100
AcDbEntity
8
0
100
AcDbPoint
10
35.473330392226742
20
-64.848051277365002
30
0
0
POINT
5
142
100
AcDbEntity
8
0
100
AcDbPoint
10
33.693718885755565
20
-65.365712579996625
30
0
0
POINT
5
143
100
AcDbEntity
8
0
100
AcDbPoint
10
36.306942830087443
20
-64.949199063540291
30
0
0
POINT
5
144
100
AcDbEntity
8
0
100
AcDbPoint
10
36.430849312849382
20
-65.798448080528104
30
0
0
POINT
5
145
100
AcDbEntity
8
0
100
AcDbPoint
10
36.311816104659826
20
-64.949003348802123
30
0
0
POINT
5
146
100
AcDbEntity
8
0
100
AcDbPoint
10
39.807458893338563
20
-83.678231207189498
30
0
0
POINT
5
147
100
AcDbEntity
8
0
100
AcDbPoint
10
16.002452471819304
20
-64.948115094753632
30
0
0
LINE
5
148
100
AcDbEntity
8
0
100
AcDbLine
10
50
20
-100
30
0
11
-50
21
-100
31
0
0
LINE
5
149
100
AcDbEntity
8
0
100
AcDbLine
10
50
20
-100
30
0
11
50
21
-150
31
0
0
LINE
5
150
100
AcDbEntity
8
0
100
AcDbLine
10
50
20
-150
30
0
11
-50
21
-150
31
0
0
LINE
5
151
100
AcDbEntity
8
0
100
AcDbLine
10
-50
20
-150
30
0
11
-50
21
-100
31
0
0
SPLINE
5
152
100
AcDbEntity
8
0
100
AcDbSpline
70
4
71
5
72
101
73
95
74
0
42
0.000000001
43
0.0000000001
44
0.0000000001
40
0
40
0
40
0
40
0
40
0
40
0
40
0.011111111111111112
40
0.022222222222222223
40
0.033333333333333333
40
0.044444444444444446
40
0.055555555555555559
40
0.066666666666666666
40
0.077777777777777779
40
0.088888888888888892
40
0.10000000000000001
40
0.11111111111111112
40
0.12222222222222223
40
0.13333333333333333
40
0.14444444444444443
40
0.15555555555555553
40
0.16666666666666663
40
0.17777777777777773
40
0.18888888888888883
40
0.19999999999999993
40
0.21111111111111103
40
0.22222222222222213
40
0.23333333333333323
40
0.24444444444444433
40
0.25555555555555542
40
0.26666666666666655
40
0.27777777777777768
40
0.28888888888888881
40
0.29999999999999993
40
0.31111111111111106
40
0.32222222222222219
40
0.33333333333333331
40
0.34444444444444444
40
0.35555555555555557
40
0.3666666666666667
40
0.37777777777777782
40
0.38888888888888895
40
0.40000000000000008
40
0.4111111111111112
40
0.42222222222222233
40
0.43333333333333346
40
0.44444444444444459
40
0.45555555555555571
40
0.46666666666666684
40
0.47777777777777797
40
0.48888888888888909
40
0.50000000000000022
40
0.51111111111111129
40
0.52222222222222237
40
0.53333333333333344
40
0.54444444444444451
40
0.55555555555555558
40
0.56666666666666665
40
0.57777777777777772
40
0.5888888888888888
40
0.59999999999999987
40
0.61111111111111094
40
0.62222222222222201
40
0.63333333333333308
40
0.64444444444444415
40
0.65555555555555522
40
0.6666666666666663
40
0.67777777777777737
40
0.68888888888888844
40
0.69999999999999951
40
0.71111111111111058
40
0.72222222222222165
40
0.73333333333333273
40
0.7444444444444438
40
0.75555555555555487
40
0.76666666666666594
40
0.77777777777777701
40
0.78888888888888808
40
0.79999999999999916
40
0.81111111111111023
40
0.8222222222222213
40
0.83333333333333237
40
0.84444444444444344
40
0.85555555555555451
40
0.86666666666666559
40
0.87777777777777666
40
0.88888888888888773
40
0.8999999999999988
40
0.91111111111110987
40
0.92222222222222094
40
0.93333333333333202
40
0.94444444444444309
40
0.95555555555555416
40
0.96666666666666523
40
0.9777777777777763
40
0.98888888888888737
40
1
40
1
40
1
40
1
40
1
40
1
41
1
41
1
41
1
41
1
41
1
41
1
41
1
41
1
41
1
41
1
41
1
41
1
41
1
41
1
41
1
41
1
41
1
41
1
41
1
41
1
41
1
41
1
41
1
41
1
41
1
41
1
41
1
41
1
41
1
41
1
41
1
41
1
41
1
41
1
41
1
41
1
41
1
41
1
41
1
41
1
41
1
41
1
41
1
41
1
41
1
41
1
41
1
41
1
41
1
41
1
41
1
41
1
41
1
41
1
41
1
41
1
41
1
41
1
41
1
41
1
41
1
41
1
41
1
41
1
41
1
41
1
41
1
41
1
41
1
41
1
41
1
41
1
41
1
41
1
41
1
41
1
41
1
41
1
41
1
41
1
41
1
41
1
41
1
41
1
41
1
41
1
41
1
41
1
41
1
41
1
41
1
41
1
41
1
41
1
41
1
10
-45
20
-105
30
0
10
-44.800000000018237
20
-105.7192530681956
30
0
10
-44.400000000049424
20
-107.04855834516641
30
0
10
-43.800000000079891
20
-108.71491368377701
30
0
10
-43.000000000091099
20
-110.28138391008207
30
0
10
-42.000000000070791
20
-111.17258666069264
30
0
10
-41.000000000033772
20
-111.07426812228182
30
0
10
-39.999999999996952
20
-110.14219453131913
30
0
10
-38.999999999972616
20
-108.63696516898393
30
0
10
-37.999999999964459
20
-106.95050869933544
30
0
10
-36.999999999970605
20
-105.51510682488959
30
0
10
-35.999999999985263
20
-104.7124437171129
30
0
10
-35.000000000001208
20
-104.78262381000292
30
0
10
-34.0000000000122
20
-105.73310397322787
30
0
10
-33.000000000015994
20
-107.24748176605843
30
0
10
-32.000000000013209
20
-108.83282230448765
30
0
10
-31.000000000006587
20
-109.96687551553094
30
0
10
-29.99999999999946
20
-110.24527674122241
30
0
10
-28.999999999994614
20
-109.528817934358
30
0
10
-27.999999999993133
20
-108.09088307772207
30
0
10
-26.9999999999945
20
-106.44464025051826
30
0
10
-25.999999999997367
20
-105.17038242983074
30
0
10
-25.000000000000281
20
-104.74290768487762
30
0
10
-24.000000000002132
20
-105.35883661489235
30
0
10
-23.00000000000265
20
-106.76375738475892
30
0
10
-22.000000000002107
20
-108.43605167830569
30
0
10
-21.00000000000103
20
-109.77055494537458
30
0
10
-19.999999999999922
20
-110.26216738391631
30
0
10
-18.999999999999236
20
-109.68952424500426
30
0
10
-17.999999999998984
20
-108.29884203337129
30
0
10
-16.999999999999154
20
-106.6153526553496
30
0
10
-15.999999999999533
20
-105.25491058179375
30
0
10
-15.000000000000039
20
-104.73565352996248
30
0
10
-14.000000000000428
20
-105.28960530687696
30
0
10
-13.000000000000629
20
-106.6741012616872
30
0
10
-12.000000000000593
20
-108.36238373804667
30
0
10
-11.00000000000038
20
-109.73402136890948
30
0
10
-10.000000000000011
20
-110.26527301800306
30
0
10
-8.9999999999996412
20
-109.71950891134733
30
0
10
-7.99999999999942
20
-108.33780978707459
30
0
10
-6.9999999999994555
20
-106.64752241700056
30
0
10
-5.9999999999997309
20
-105.2709926305705
30
0
10
-5.000000000000032
20
-104.73435448931262
30
0
10
-4.0000000000002229
20
-105.27626257237969
30
0
10
-3.000000000000282
20
-106.65644601166289
30
0
10
-2.0000000000002323
20
-108.34746142294073
30
0
10
-1.0000000000001388
20
-109.72626777395085
30
0
10
-7.5243630770494008e-15
20
-110.26574474104092
30
0
10
1.0000000000001414
20
-109.72626777394998
30
0
10
2.0000000000002669
20
-108.34746142293997
30
0
10
3.000000000000274
20
-106.65644601166235
30
0
10
4.0000000000001474
20
-105.27626257237938
30
0
10
4.9999999999999662
20
-104.73435448931254
30
0
10
5.999999999999841
20
-105.2709926305709
30
0
10
6.9999999999997513
20
-106.64752241700172
30
0
10
7.9999999999997335
20
-108.33780978707654
30
0
10
8.9999999999998188
20
-109.71950891134908
30
0
10
9.9999999999999538
20
-110.26527301800314
30
0
10
11.000000000000119
20
-109.73402136890766
30
0
10
12.000000000000187
20
-108.36238373804348
30
0
10
13.000000000000171
20
-106.67410126168389
30
0
10
14.000000000000053
20
-105.28960530687486
30
0
10
14.99999999999994
20
-104.73565352996248
30
0
10
15.999999999999815
20
-105.25491058179581
30
0
10
16.999999999999751
20
-106.61535265535365
30
0
10
17.99999999999973
20
-108.29884203337545
30
0
10
18.999999999999758
20
-109.68952424500664
30
0
10
19.999999999999915
20
-110.26216738391619
30
0
10
21.000000000000092
20
-109.77055494537237
30
0
10
22.000000000000259
20
-108.43605167830283
30
0
10
23.00000000000033
20
-106.76375738475754
30
0
10
24.000000000000217
20
-105.35883661489268
30
0
10
24.999999999999925
20
-104.74290768487825
30
0
10
25.999999999999513
20
-105.17038242982909
30
0
10
26.999999999999105
20
-106.44464025051319
30
0
10
27.999999999998892
20
-108.0908830777142
30
0
10
28.999999999999126
20
-109.52881793435083
30
0
10
29.999999999999815
20
-110.24527674122113
30
0
10
31.000000000000778
20
-109.96687551554064
30
0
10
32.000000000001641
20
-108.83282230450882
30
0
10
33.000000000001933
20
-107.2474817660857
30
0
10
34.000000000001428
20
-105.73310397325018
30
0
10
35.000000000000014
20
-104.7826238100057
30
0
10
35.999999999997954
20
-104.71244371708497
30
0
10
36.999999999996042
20
-105.51510682483048
30
0
10
37.999999999995183
20
-106.95050869926037
30
0
10
38.999999999996213
20
-108.63696516892317
30
0
10
39.99999999999941
20
-110.14219453131112
30
0
10
41.000000000004384
20
-111.07426812235866
30
0
10
42.000000000009372
20
-111.17258666085677
30
0
10
43.000000000012157
20
-110.28138391029594
30
0
10
43.800000000010527
20
-108.71491368396505
30
0
10
44.400000000006429
20
-107.04855834528308
30
0
10
44.800000000002342
20
-105.71925306823873
30
0
10
45
20
-105
30
0
0
SPLINE
5
153
100
AcDbEntity
8
0
100
AcDbSpline
70
4
71
5
72
101
73
95
74
0
42
0.000000001
43
0.0000000001
44
0.0000000001
40
0
40
0
40
0
40
0
40
0
40
0
40
0.011111111111111112
40
0.022222222222222223
40
0.033333333333333333
40
0.044444444444444446
40
0.055555555555555559
40
0.066666666666666666
40
0.077777777777777779
40
0.088888888888888892
40
0.10000000000000001
40
0.11111111111111112
40
0.12222222222222223
40
0.13333333333333333
40
0.14444444444444443
40
0.15555555555555553
40
0.16666666666666663
40
0.17777777777777773
40
0.18888888888888883
40
0.19999999999999993
40
0.21111111111111103
40
0.22222222222222213
40
0.23333333333333323
40
0.24444444444444433
40
0.25555555555555542
40
0.26666666666666655
40
0.27777777777777768
40
0.28888888888888881
40
0.29999999999999993
40
0.31111111111111106
40
0.32222222222222219
40
0.33333333333333331
40
0.34444444444444444
40
0.35555555555555557
40
0.3666666666666667
40
0.37777777777777782
40
0.38888888888888895
40
0.40000000000000008
40
0.4111111111111112
40
0.42222222222222233
40
0.43333333333333346
40
0.44444444444444459
40
0.45555555555555571
40
0.46666666666666684
40
0.47777777777777797
40
0.48888888888888909
40
0.50000000000000022
40
0.51111111111111129
40
0.52222222222222237
40
0.53333333333333344
40
0.54444444444444451
40
0.55555555555555558
40
0.56666666666666665
40
0.57777777777777772
40
0.5888888888888888
40
0.59999999999999987
40
0.61111111111111094
40
0.62222222222222201
40
0.63333333333333308
40
0.64444444444444415
40
0.65555555555555522
40
0.6666666666666663
40
0.67777777777777737
40
0.68888888888888844
40
0.69999999999999951
40
0.71111111111111058
40
0.72222222222222165
40
0.73333333333333273
40
0.7444444444444438
40
0.75555555555555487
40
0.76666666666666594
40
0.77777777777777701
40
0.78888888888888808
40
0.79999999999999916
40
0.81111111111111023
40
0.8222222222222213
40
0.83333333333333237
40
0.84444444444444344
40
0.85555555555555451
40
0.86666666666666559
40
0.87777777777777666
40
0.88888888888888773
40
0.8999999999999988
40
0.91111111111110987
40
0.92222222222222094
40
0.93333333333333202
40
0.94444444444444309
40
0.95555555555555416
40
0.96666666666666523
40
0.9777777777777763
40
0.98888888888888737
40
1
40
1
40
1
40
1
40
1
40
1
41
1
41
1
41
1
41
1
41
1
41
1
41
1
41
1
41
1
41
1
41
1
41
1
41
1
41
1
41
1
41
1
41
1
41
1
41
1
41
1
41
1
41
1
41
1
41
1
41
1
41
1
41
1
41
1
41
1
41
1
41
1
41
1
41
1
41
1
41
1
41
1
41
1
41
1
41
1
41
1
41
1
41
1
41
1
41
1
41
1
41
1
41
1
41
1
41
1
41
1
41
1
41
1
41
1
41
1
41
1
41
1
41
1
41
1
41
1
41
1
41
1
41
1
41
1
41
1
41
1
41
1
41
1
41
1
41
1
41
1
41
1
41
1
41
1
41
1
41
1
41
1
41
1
41
1
41
1
41
1
41
1
41
1
41
1
41
1
41
1
41
1
41
1
41
1
41
1
41
1
41
1
41
1
41
1
41
1
41
1
10
-45
20
-116.66666666666666
30
0
10
-44.800000000018237
20
-117.38591973486226
30
0
10
-44.400000000049424
20
-118.71522501183307
30
0
10
-43.800000000079891
20
-120.38158035044367
30
0
10
-43.000000000091099
20
-121.94805057674873
30
0
10
-42.000000000070791
20
-122.83925332735932
30
0
10
-41.000000000033772
20
-122.74093478894848
30
0
10
-39.999999999996952
20
-121.80886119798579
30
0
10
-38.999999999972616
20
-120.30363183565059
30
0
10
-37.999999999964459
20
-118.6171753660021
30
0
10
-36.999999999970605
20
-117.18177349155624
30
0
10
-35.999999999985263
20
-116.37911038377956
30
0
10
-35.000000000001208
20
-116.44929047666957
30
0
10
-34.0000000000122
20
-117.39977063989454
30
0
10
-33.000000000015994
20
-118.91414843272509
30
0
10
-32.000000000013209
20
-120.49948897115431
30
0
10
-31.000000000006587
20
-121.6335421821976
30
0
10
-29.99999999999946
20
-121.91194340788908
30
0
10
-28.999999999994614
20
-121.19548460102466
30
0
10
-27.999999999993133
20
-119.75754974438873
30
0
10
-26.9999999999945
20
-118.11130691718492
30
0
10
-25.999999999997367
20
-116.8370490964974
30
0
10
-25.000000000000281
20
-116.40957435154428
30
0
10
-24.000000000002132
20
-117.02550328155901
30
0
10
-23.00000000000265
20
-118.43042405142558
30
0
10
-22.000000000002107
20
-120.10271834497235
30
0
10
-21.00000000000103
20
-121.43722161204124
30
0
10
-19.999999999999922
20
-121.92883405058296
30
0
10
-18.999999999999236
20
-121.35619091167092
30
0
10
-17.999999999998984
20
-119.96550870003794
30
0
10
-16.999999999999154
20
-118.28201932201625
30
0
10
-15.999999999999533
20
-116.92157724846041
30
0
10
-15.000000000000039
20
-116.40232019662915
30
0
10
-14.000000000000428
20
-116.95627197354362
30
0
10
-13.000000000000629
20
-118.34076792835387
30
0
10
-12.000000000000593
20
-120.02905040471333
30
0
10
-11.00000000000038
20
-121.40068803557614
30
0
10
-10.000000000000011
20
-121.93193968466971
30
0
10
-8.9999999999996412
20
-121.38617557801399
30
0
10
-7.99999999999942
20
-120.00447645374125
30
0
10
-6.9999999999994555
20
-118.31418908366722
30
0
10
-5.9999999999997309
20
-116.93765929723716
30
0
10
-5.000000000000032
20
-116.40102115597928
30
0
10
-4.0000000000002229
20
-116.94292923904635
30
0
10
-3.000000000000282
20
-118.32311267832955
30
0
10
-2.0000000000002323
20
-120.01412808960738
30
0
10
-1.0000000000001388
20
-121.39293444061751
30
0
10
-7.5243630770494008e-15
20
-121.93241140770758
30
0
10
1.0000000000001414
20
-121.39293444061664
30
0
10
2.0000000000002669
20
-120.01412808960664
30
0
10
3.000000000000274
20
-118.32311267832901
30
0
10
4.0000000000001474
20
-116.94292923904604
30
0
10
4.9999999999999662
20
-116.40102115597919
30
0
10
5.999999999999841
20
-116.93765929723756
30
0
10
6.9999999999997513
20
-118.3141890836684
30
0
10
7.9999999999997335
20
-120.00447645374321
30
0
10
8.9999999999998188
20
-121.38617557801574
30
0
10
9.9999999999999538
20
-121.9319396846698
30
0
10
11.000000000000119
20
-121.40068803557432
30
0
10
12.000000000000187
20
-120.02905040471013
30
0
10
13.000000000000171
20
-118.34076792835054
30
0
10
14.000000000000053
20
-116.95627197354153
30
0
10
14.99999999999994
20
-116.40232019662915
30
0
10
15.999999999999815
20
-116.92157724846247
30
0
10
16.999999999999751
20
-118.28201932202032
30
0
10
17.99999999999973
20
-119.96550870004212
30
0
10
18.999999999999758
20
-121.35619091167329
30
0
10
19.999999999999915
20
-121.92883405058285
30
0
10
21.000000000000092
20
-121.43722161203902
30
0
10
22.000000000000259
20
-120.10271834496949
30
0
10
23.00000000000033
20
-118.4304240514242
30
0
10
24.000000000000217
20
-117.02550328155935
30
0
10
24.999999999999925
20
-116.4095743515449
30
0
10
25.999999999999513
20
-116.83704909649576
30
0
10
26.999999999999105
20
-118.11130691717985
30
0
10
27.999999999998892
20
-119.75754974438087
30
0
10
28.999999999999126
20
-121.19548460101748
30
0
10
29.999999999999815
20
-121.9119434078878
30
0
10
31.000000000000778
20
-121.63354218220731
30
0
10
32.000000000001641
20
-120.49948897117548
30
0
10
33.000000000001933
20
-118.91414843275236
30
0
10
34.000000000001428
20
-117.39977063991685
30
0
10
35.000000000000014
20
-116.44929047667236
30
0
10
35.999999999997954
20
-116.37911038375164
30
0
10
36.999999999996042
20
-117.18177349149714
30
0
10
37.999999999995183
20
-118.61717536592704
30
0
10
38.999999999996213
20
-120.30363183558983
30
0
10
39.99999999999941
20
-121.80886119797778
30
0
10
41.000000000004384
20
-122.74093478902532
30
0
10
42.000000000009372
20
-122.83925332752344
30
0
10
43.000000000012157
20
-121.9480505769626
30
0
10
43.800000000010527
20
-120.38158035063171
30
0
10
44.400000000006429
20
-118.71522501194974
30
0
10
44.800000000002342
20
-117.3859197349054
30
0
10
45
20
-116.66666666666666
30
0
0
SPLINE
5
154
100
AcDbEntity
8
0
100
AcDbSpline
70
4
71
5
72
101
73
95
74
0
42
0.000000001
43
0.0000000001
44
0.0000000001
40
0
40
0
40
0
40
0
40
0
40
0
40
0.011111111111111112
40
0.022222222222222223
40
0.033333333333333333
40
0.044444444444444446
40
0.055555555555555559
40
0.066666666666666666
40
0.077777777777777779
40
0.088888888888888892
40
0.10000000000000001
40
0.11111111111111112
40
0.12222222222222223
40
0.13333333333333333
40
0.14444444444444443
40
0.15555555555555553
40
0.16666666666666663
40
0.17777777777777773
40
0.18888888888888883
40
0.19999999999999993
40
0.21111111111111103
40
0.22222222222222213
40
0.23333333333333323
40
0.24444444444444433
40
0.25555555555555542
40
0.26666666666666655
40
0.27777777777777768
40
0.28888888888888881
40
0.29999999999999993
40
0.31111111111111106
40
0.32222222222222219
40
0.33333333333333331
40
0.34444444444444444
40
0.35555555555555557
40
0.3666666666666667
40
0.37777777777777782
40
0.38888888888888895
40
0.40000000000000008
40
0.4111111111111112
40
0.42222222222222233
40
0.43333333333333346
40
0.44444444444444459
40
0.45555555555555571
40
0.46666666666666684
40
0.47777777777777797
40
0.48888888888888909
40
0.50000000000000022
40
0.51111111111111129
40
0.52222222222222237
40
0.53333333333333344
40
0.54444444444444451
40
0.55555555555555558
40
0.56666666666666665
40
0.57777777777777772
40
0.5888888888888888
40
0.59999999999999987
40
0.61111111111111094
40
0.62222222222222201
40
0.63333333333333308
40
0.64444444444444415
40
0.65555555555555522
40
0.6666666666666663
40
0.67777777777777737
40
0.68888888888888844
40
0.69999999999999951
40
0.71111111111111058
40
0.72222222222222165
40
0.73333333333333273
40
0.7444444444444438
40
0.75555555555555487
40
0.76666666666666594
40
0.77777777777777701
40
0.78888888888888808
40
0.79999999999999916
40
0.81111111111111023
40
0.8222222222222213
40
0.83333333333333237
40
0.84444444444444344
40
0.85555555555555451
40
0.86666666666666559
40
0.87777777777777666
40
0.88888888888888773
40
0.8999999999999988
40
0.91111111111110987
40
0.92222222222222094
40
0.93333333333333202
40
0.94444444444444309
40
0.95555555555555416
40
0.96666666666666523
40
0.9777777777777763
40
0.98888888888888737
40
1
40
1
40
1
40
1
40
1
40
1
41
1
41
1
41
1
41
1
41
1
41
1
41
1
41
1
41
1
41
1
41
1
41
1
41
1
41
1
41
1
41
1
41
1
41
1
41
1
41
1
41
1
41
1
41
1
41
1
41
1
41
1
41
1
41
1
41
1
41
1
41
1
41
1
41
1
41
1
41
1
41
1
41
1
41
1
41
1
41
1
41
1
41
1
41
1
41
1
41
1
41
1
41
1
41
1
41
1
41
1
41
1
41
1
41
1
41
1
41
1
41
1
41
1
41
1
41
1
41
1
41
1
41
1
41
1
41
1
41
1
41
1
41
1
41
1
41
1
41
1
41
1
41
1
41
1
41
1
41
1
41
1
41
1
41
1
41
1
41
1
41
1
41
1
41
1
41
1
41
1
41
1
41
1
41
1
41
1
41
1
41
1
41
1
41
1
41
1
41
1
10
-45
20
-128.33333333333334
30
0
10
-44.800000000018237
20
-129.05258640152894
30
0
10
-44.400000000049424
20
-130.38189167849976
30
0
10
-43.800000000079891
20
-132.04824701711036
30
0
10
-43.000000000091099
20
-133.61471724341541
30
0
10
-42.000000000070791
20
-134.50591999402599
30
0
10
-41.000000000033772
20
-134.40760145561515
30
0
10
-39.999999999996952
20
-133.47552786465246
30
0
10
-38.999999999972616
20
-131.97029850231726
30
0
10
-37.999999999964459
20
-130.28384203266879
30
0
10
-36.999999999970605
20
-128.84844015822293
30
0
10
-35.999999999985263
20
-128.04577705044625
30
0
10
-35.000000000001208
20
-128.11595714333626
30
0
10
-34.0000000000122
20
-129.06643730656123
30
0
10
-33.000000000015994
20
-130.58081509939177
30
0
10
-32.000000000013209
20
-132.16615563782099
30
0
10
-31.000000000006587
20
-133.30020884886429
30
0
10
-29.99999999999946
20
-133.57861007455574
30
0
10
-28.999999999994614
20
-132.86215126769133
30
0
10
-27.999999999993133
20
-131.4242164110554
30
0
10
-26.9999999999945
20
-129.7779735838516
30
0
10
-25.999999999997367
20
-128.50371576316408
30
0
10
-25.000000000000281
20
-128.07624101821096
30
0
10
-24.000000000002132
20
-128.69216994822568
30
0
10
-23.00000000000265
20
-130.09709071809226
30
0
10
-22.000000000002107
20
-131.76938501163903
30
0
10
-21.00000000000103
20
-133.10388827870793
30
0
10
-19.999999999999922
20
-133.59550071724965
30
0
10
-18.999999999999236
20
-133.02285757833761
30
0
10
-17.999999999998984
20
-131.63217536670462
30
0
10
-16.999999999999154
20
-129.94868598868294
30
0
10
-15.999999999999533
20
-128.58824391512709
30
0
10
-15.000000000000039
20
-128.06898686329583
30
0
10
-14.000000000000428
20
-128.62293864021029
30
0
10
-13.000000000000629
20
-130.00743459502053
30
0
10
-12.000000000000593
20
-131.69571707138002
30
0
10
-11.00000000000038
20
-133.06735470224282
30
0
10
-10.000000000000011
20
-133.5986063513364
30
0
10
-8.9999999999996412
20
-133.05284224468068
30
0
10
-7.99999999999942
20
-131.67114312040792
30
0
10
-6.9999999999994555
20
-129.98085575033389
30
0
10
-5.9999999999997309
20
-128.60432596390385
30
0
10
-5.000000000000032
20
-128.06768782264595
30
0
10
-4.0000000000002229
20
-128.60959590571304
30
0
10
-3.000000000000282
20
-129.98977934499624
30
0
10
-2.0000000000002323
20
-131.68079475627405
30
0
10
-1.0000000000001388
20
-133.05960110728418
30
0
10
-7.5243630770494008e-15
20
-133.59907807437426
30
0
10
1.0000000000001414
20
-133.05960110728333
30
0
10
2.0000000000002669
20
-131.68079475627331
30
0
10
3.000000000000274
20
-129.9897793449957
30
0
10
4.0000000000001474
20
-128.60959590571272
30
0
10
4.9999999999999662
20
-128.06768782264587
30
0
10
5.999999999999841
20
-128.60432596390424
30
0
10
6.9999999999997513
20
-129.98085575033508
30
0
10
7.9999999999997335
20
-131.67114312040988
30
0
10
8.9999999999998188
20
-133.05284224468241
30
0
10
9.9999999999999538
20
-133.59860635133649
30
0
10
11.000000000000119
20
-133.067354702241
30
0
10
12.000000000000187
20
-131.69571707137681
30
0
10
13.000000000000171
20
-130.00743459501723
30
0
10
14.000000000000053
20
-128.62293864020819
30
0
10
14.99999999999994
20
-128.06898686329583
30
0
10
15.999999999999815
20
-128.58824391512914
30
0
10
16.999999999999751
20
-129.94868598868698
30
0
10
17.99999999999973
20
-131.63217536670879
30
0
10
18.999999999999758
20
-133.02285757833997
30
0
10
19.999999999999915
20
-133.59550071724954
30
0
10
21.000000000000092
20
-133.10388827870571
30
0
10
22.000000000000259
20
-131.76938501163616
30
0
10
23.00000000000033
20
-130.09709071809087
30
0
10
24.000000000000217
20
-128.69216994822602
30
0
10
24.999999999999925
20
-128.07624101821159
30
0
10
25.999999999999513
20
-128.50371576316243
30
0
10
26.999999999999105
20
-129.77797358384652
30
0
10
27.999999999998892
20
-131.42421641104755
30
0
10
28.999999999999126
20
-132.86215126768417
30
0
10
29.999999999999815
20
-133.57861007455449
30
0
10
31.000000000000778
20
-133.30020884887398
30
0
10
32.000000000001641
20
-132.16615563784217
30
0
10
33.000000000001933
20
-130.58081509941903
30
0
10
34.000000000001428
20
-129.06643730658351
30
0
10
35.000000000000014
20
-128.11595714333905
30
0
10
35.999999999997954
20
-128.04577705041831
30
0
10
36.999999999996042
20
-128.84844015816381
30
0
10
37.999999999995183
20
-130.28384203259372
30
0
10
38.999999999996213
20
-131.9702985022565
30
0
10
39.99999999999941
20
-133.47552786464445
30
0
10
41.000000000004384
20
-134.407601455692
30
0
10
42.000000000009372
20
-134.50591999419009
30
0
10
43.000000000012157
20
-133.61471724362929
30
0
10
43.800000000010527
20
-132.04824701729839
30
0
10
44.400000000006429
20
-130.38189167861643
30
0
10
44.800000000002342
20
-129.05258640157206
30
0
10
45
20
-128.33333333333334
30
0
0
SPLINE
5
155
100
AcDbEntity
8
0
100
AcDbSpline
70
4
71
5
72
101
73
95
74
0
42
0.000000001
43
0.0000000001
44
0.0000000001
40
0
40
0
40
0
40
0
40
0
40
0
40
0.011111111111111112
40
0.022222222222222223
40
0.033333333333333333
40
0.044444444444444446
40
0.055555555555555559
40
0.066666666666666666
40
0.077777777777777779
40
0.088888888888888892
40
0.10000000000000001
40
0.11111111111111112
40
0.12222222222222223
40
0.13333333333333333
40
0.14444444444444443
40
0.15555555555555553
40
0.16666666666666663
40
0.17777777777777773
40
0.18888888888888883
40
0.19999999999999993
40
0.21111111111111103
40
0.22222222222222213
40
0.23333333333333323
40
0.24444444444444433
40
0.25555555555555542
40
0.26666666666666655
40
0.27777777777777768
40
0.28888888888888881
40
0.29999999999999993
40
0.31111111111111106
40
0.32222222222222219
40
0.33333333333333331
40
0.34444444444444444
40
0.35555555555555557
40
0.3666666666666667
40
0.37777777777777782
40
0.38888888888888895
40
0.40000000000000008
40
0.4111111111111112
40
0.42222222222222233
40
0.43333333333333346
40
0.44444444444444459
40
0.45555555555555571
40
0.46666666666666684
40
0.47777777777777797
40
0.48888888888888909
40
0.50000000000000022
40
0.51111111111111129
40
0.52222222222222237
40
0.53333333333333344
40
0.54444444444444451
40
0.55555555555555558
40
0.56666666666666665
40
0.57777777777777772
40
0.5888888888888888
40
0.59999999999999987
40
0.61111111111111094
40
0.62222222222222201
40
0.63333333333333308
40
0.64444444444444415
40
0.65555555555555522
40
0.6666666666666663
40
0.67777777777777737
40
0.68888888888888844
40
0.69999999999999951
40
0.71111111111111058
40
0.72222222222222165
40
0.73333333333333273
40
0.7444444444444438
40
0.75555555555555487
40
0.76666666666666594
40
0.77777777777777701
40
0.78888888888888808
40
0.79999999999999916
40
0.81111111111111023
40
0.8222222222222213
40
0.83333333333333237
40
0.84444444444444344
40
0.85555555555555451
40
0.86666666666666559
40
0.87777777777777666
40
0.88888888888888773
40
0.8999999999999988
40
0.91111111111110987
40
0.92222222222222094
40
0.93333333333333202
40
0.94444444444444309
40
0.95555555555555416
40
0.96666666666666523
40
0.9777777777777763
40
0.98888888888888737
40
1
40
1
40
1
40
1
40
1
40
1
41
1
41
1
41
1
41
1
41
1
41
1
41
1
41
1
41
1
41
1
41
1
41
1
41
1
41
1
41
1
41
1
41
1
41
1
41
1
41
1
41
1
41
1
41
1
41
1
41
1
41
1
41
1
41
1
41
1
41
1
41
1
41
1
41
1
41
1
41
1
41
1
41
1
41
1
41
1
41
1
41
1
41
1
41
1
41
1
41
1
41
1
41
1
41
1
41
1
41
1
41
1
41
1
41
1
41
1
41
1
41
1
41
1
41
1
41
1
41
1
41
1
41
1
41
1
41
1
41
1
41
1
41
1
41
1
41
1
41
1
41
1
41
1
41
1
41
1
41
1
41
1
41
1
41
1
41
1
41
1
41
1
41
1
41
1
41
1
41
1
41
1
41
1
41
1
41
1
41
1
41
1
41
1
41
1
41
1
41
1
10
-45
20
-140
30
0
10
-44.800000000018237
20
-140.7192530681956
30
0
10
-44.400000000049424
20
-142.04855834516641
30
0
10
-43.800000000079891
20
-143.71491368377701
30
0
10
-43.000000000091099
20
-145.28138391008207
30
0
10
-42.000000000070791
20
-146.17258666069264
30
0
10
-41.000000000033772
20
-146.07426812228181
30
0
10
-39.999999999996952
20
-145.14219453131912
30
0
10
-38.999999999972616
20
-143.63696516898392
30
0
10
-37.999999999964459
20
-141.95050869933544
30
0
10
-36.999999999970605
20
-140.51510682488959
30
0
10
-35.999999999985263
20
-139.7124437171129
30
0
10
-35.000000000001208
20
-139.78262381000292
30
0
10
-34.0000000000122
20
-140.73310397322788
30
0
10
-33.000000000015994
20
-142.24748176605843
30
0
10
-32.000000000013209
20
-143.83282230448765
30
0
10
-31.000000000006587
20
-144.96687551553094
30
0
10
-29.99999999999946
20
-145.24527674122243
30
0
10
-28.999999999994614
20
-144.52881793435802
30
0
10
-27.999999999993133
20
-143.09088307772208
30
0
10
-26.9999999999945
20
-141.44464025051826
30
0
10
-25.999999999997367
20
-140.17038242983074
30
0
10
-25.000000000000281
20
-139.74290768487762
30
0
10
-24.000000000002132
20
-140.35883661489234
30
0
10
-23.00000000000265
20
-141.76375738475892
30
0
10
-22.000000000002107
20
-143.43605167830569
30
0
10
-21.00000000000103
20
-144.77055494537458
30
0
10
-19.999999999999922
20
-145.26216738391631
30
0
10
-18.999999999999236
20
-144.68952424500426
30
0
10
-17.999999999998984
20
-143.29884203337127
30
0
10
-16.999999999999154
20
-141.6153526553496
30
0
10
-15.999999999999533
20
-140.25491058179375
30
0
10
-15.000000000000039
20
-139.73565352996249
30
0
10
-14.000000000000428
20
-140.28960530687695
30
0
10
-13.000000000000629
20
-141.67410126168721
30
0
10
-12.000000000000593
20
-143.36238373804667
30
0
10
-11.00000000000038
20
-144.73402136890948
30
0
10
-10.000000000000011
20
-145.26527301800306
30
0
10
-8.9999999999996412
20
-144.71950891134733
30
0
10
-7.99999999999942
20
-143.3378097870746
30
0
10
-6.9999999999994555
20
-141.64752241700054
30
0
10
-5.9999999999997309
20
-140.2709926305705
30
0
10
-5.000000000000032
20
-139.73435448931264
30
0
10
-4.0000000000002229
20
-140.27626257237969
30
0
10
-3.000000000000282
20
-141.65644601166289
30
0
10
-2.0000000000002323
20
-143.34746142294074
30
0
10
-1.0000000000001388
20
-144.72626777395084
30
0
10
-7.5243630770494008e-15
20
-145.26574474104092
30
0
10
1.0000000000001414
20
-144.72626777394998
30
0
10
2.0000000000002669
20
-143.34746142293997
30
0
10
3.000000000000274
20
-141.65644601166235
30
0
10
4.0000000000001474
20
-140.27626257237938
30
0
10
4.9999999999999662
20
-139.73435448931252
30
0
10
5.999999999999841
20
-140.2709926305709
30
0
10
6.9999999999997513
20
-141.64752241700174
30
0
10
7.9999999999997335
20
-143.33780978707654
30
0
10
8.9999999999998188
20
-144.71950891134907
30
0
10
9.9999999999999538
20
-145.26527301800314
30
0
10
11.000000000000119
20
-144.73402136890766
30
0
10
12.000000000000187
20
-143.36238373804346
30
0
10
13.000000000000171
20
-141.67410126168389
30
0
10
14.000000000000053
20
-140.28960530687488
30
0
10
14.99999999999994
20
-139.73565352996249
30
0
10
15.999999999999815
20
-140.2549105817958
30
0
10
16.999999999999751
20
-141.61535265535366
30
0
10
17.99999999999973
20
-143.29884203337545
30
0
10
18.999999999999758
20
-144.68952424500662
30
0
10
19.999999999999915
20
-145.26216738391619
30
0
10
21.000000000000092
20
-144.77055494537237
30
0
10
22.000000000000259
20
-143.43605167830282
30
0
10
23.00000000000033
20
-141.76375738475753
30
0
10
24.000000000000217
20
-140.35883661489268
30
0
10
24.999999999999925
20
-139.74290768487825
30
0
10
25.999999999999513
20
-140.17038242982909
30
0
10
26.999999999999105
20
-141.44464025051317
30
0
10
27.999999999998892
20
-143.09088307771421
30
0
10
28.999999999999126
20
-144.52881793435083
30
0
10
29.999999999999815
20
-145.24527674122115
30
0
10
31.000000000000778
20
-144.96687551554064
30
0
10
32.000000000001641
20
-143.83282230450882
30
0
10
33.000000000001933
20
-142.24748176608568
30
0
10
34.000000000001428
20
-140.73310397325019
30
0
10
35.000000000000014
20
-139.7826238100057
30
0
10
35.999999999997954
20
-139.71244371708497
30
0
10
36.999999999996042
20
-140.51510682483047
30
0
10
37.999999999995183
20
-141.95050869926038
30
0
10
38.999999999996213
20
-143.63696516892315
30
0
10
39.99999999999941
20
-145.14219453131113
30
0
10
41.000000000004384
20
-146.07426812235866
30
0
10
42.000000000009372
20
-146.17258666085678
30
0
10
43.000000000012157
20
-145.28138391029594
30
0
10
43.800000000010527
20
-143.71491368396505
30
0
10
44.400000000006429
20
-142.04855834528308
30
0
10
44.800000000002342
20
-140.71925306823874
30
0
10
45
20
-140
30
0
0
LINE
5
156
100
AcDbEntity
8
0
100
AcDbLine
10
-26.000000387430191
20
-60.000000894069672
30
0
11
-24.000000357627869
21
-60.000000894069672
31
0
0
LINE
5
157
100
AcDbEntity
8
0
100
AcDbLine
10
-24.000000357627869
20
-60.000000894069672
30
0
11
-24.000000377360003
21
-64.948200908288129
31
0
0
LINE
5
158
100
AcDbEntity
8
0
100
AcDbLine
10
-26.00000036769806
20
-64.948200908288129
30
0
11
-26.000000387430191
21
-60.000000894069672
31
0
0
SPLINE
5
159
100
AcDbEntity
8
0
100
AcDbSpline
70
4
71
5
72
36
73
30
74
0
42
0.000000001
43
0.0000000001
44
0.0000000001
40
0.036372519929830587
40
0.036372519929830587
40
0.036372519929830587
40
0.036372519929830587
40
0.036372519929830587
40
0.036372519929830587
40
0.040000000000000001
40
0.080000000000000002
40
0.12
40
0.16
40
0.20000000000000001
40
0.24000000000000002
40
0.28000000000000003
40
0.32000000000000001
40
0.35999999999999999
40
0.39999999999999997
40
0.43999999999999995
40
0.47999999999999993
40
0.51999999999999991
40
0.55999999999999994
40
0.59999999999999998
40
0.64000000000000001
40
0.68000000000000005
40
0.72000000000000008
40
0.76000000000000012
40
0.80000000000000016
40
0.84000000000000019
40
0.88000000000000023
40
0.92000000000000026
40
0.9600000000000003
40
1
40
1
40
1
40
1
40
1
40
1
41
1
41
1
41
1
41
1
41
1
41
1
41
1
41
1
41
1
41
1
41
1
41
1
41
1
41
1
41
1
41
1
41
1
41
1
41
1
41
1
41
1
41
1
41
1
41
1
41
1
41
1
41
1
41
1
41
1
41
1
10
-26.00000036769806
20
-64.948200908288129
30
0
10
-26.018014741205953
20
-64.948831722914321
30
0
10
-26.233514999876427
20
-64.957416544875286
30
0
10
-26.619918103925855
20
-64.996880453938829
30
0
10
-27.115764697755786
20
-65.120375186358856
30
0
10
-27.62689039547816
20
-65.410534262449303
30
0
10
-28.041662338540672
20
-65.957114894453341
30
0
10
-28.288870735422474
20
-66.675992019126141
30
0
10
-28.442146730771533
20
-67.532010861772321
30
0
10
-28.588116334268449
20
-68.482508290931804
30
0
10
-28.80729724142752
20
-69.485685829952601
30
0
10
-29.157307299562817
20
-70.507892977451263
30
0
10
-29.650102746950378
20
-71.533566879512691
30
0
10
-30.250079963116544
20
-72.56568515598866
30
0
10
-30.893280889056953
20
-73.616606721705068
30
0
10
-31.500379362533714
20
-74.701710860435767
30
0
10
-31.992282825825527
20
-75.831746947431782
30
0
10
-32.303844809780877
20
-77.006145056483774
30
0
10
-32.400463238792327
20
-78.204604681625526
30
0
10
-32.272968917988869
20
-79.391988064807151
30
0
10
-31.929769174957073
20
-80.52488894232016
30
0
10
-31.390068387772004
20
-81.557739633334322
30
0
10
-30.677295786420039
20
-82.448569126164017
30
0
10
-29.811575066698857
20
-83.166243803760494
30
0
10
-28.806657937604196
20
-83.692310526747335
30
0
10
-27.671784333734838
20
-84.01693231666043
30
0
10
-26.664146865748531
20
-84.112639296335772
30
0
10
-25.853411055602074
20
-84.092119602306667
30
0
10
-25.288534826984119
20
-84.037526353757386
30
0
10
-25.00000037252903
20
-84.00000125169754
30
0
0
SPLINE
5
160
100
AcDbEntity
8
0
100
AcDbSpline
70
4
71
5
72
20
73
14
74
0
42
0.000000001
43
0.0000000001
44
0.0000000001
40
0.15158162799657493
40
0.15158162799657493
40
0.15158162799657493
40
0.15158162799657493
40
0.15158162799657493
40
0.15158162799657493
40
0.20000000000000001
40
0.30000000000000004
40
0.40000000000000002
40
0.5
40
0.59999999999999998
40
0.69999999999999996
40
0.79999999999999993
40
0.89999999999999991
40
1
40
1
40
1
40
1
40
1
40
1
41
1
41
1
41
1
41
1
41
1
41
1
41
1
41
1
41
1
41
1
41
1
41
1
41
1
41
1
10
-22.26674196608235
20
-65.614009053449891
30
0
10
-22.163837133670086
20
-65.585818305752085
30
0
10
-21.852333958550162
20
-65.49762806127552
30
0
10
-21.351359227463199
20
-65.340802931197231
30
0
10
-20.698483645341721
20
-65.098380440331766
30
0
10
-19.955575928739709
20
-64.742428012717482
30
0
10
-19.264734430360498
20
-64.283441249876589
30
0
10
-18.722483031782627
20
-63.757368817870798
30
0
10
-18.330412656815046
20
-63.163492444156319
30
0
10
-18.080403557393595
20
-62.505478044110745
30
0
10
-17.986280835523324
20
-61.93126161367956
30
0
10
-17.971705378389832
20
-61.475308843875816
30
0
10
-17.986485888402978
20
-61.160280172981096
30
0
10
-18.000000268220901
20
-61.000000908970833
30
0
0
SPLINE
5
161
100
AcDbEntity
8
0
100
AcDbSpline
70
4
71
5
72
20
73
14
74
0
42
0.000000001
43
0.0000000001
44
0.0000000001
40
0.13772612209639362
40
0.13772612209639362
40
0.13772612209639362
40
0.13772612209639362
40
0.13772612209639362
40
0.13772612209639362
40
0.20000000000000001
40
0.30000000000000004
40
0.40000000000000002
40
0.5
40
0.59999999999999998
40
0.69999999999999996
40
0.79999999999999993
40
0.89999999999999991
40
1
40
1
40
1
40
1
40
1
40
1
41
1
41
1
41
1
41
1
41
1
41
1
41
1
41
1
41
1
41
1
41
1
41
1
41
1
41
1
10
-23.976044643928304
20
-64.949101206176124
30
0
10
-23.963146200691497
20
-64.858912135755801
30
0
10
-23.92308476934916
20
-64.626808877134735
30
0
10
-23.830856802447936
20
-64.264080067415676
30
0
10
-23.640005379343449
20
-63.791700143083347
30
0
10
-23.277517594060228
20
-63.242633074565333
30
0
10
-22.735266195495129
20
-62.716560642585108
30
0
10
-22.04442469712539
20
-62.257573879758894
30
0
10
-21.216060202068185
20
-61.860676194655639
30
0
10
-20.263076836371262
20
-61.520041614127905
30
0
10
-19.41029553303747
20
-61.288345436864716
30
0
10
-18.723286753950461
20
-61.135983817678266
30
0
10
-18.244550976109565
20
-61.043768580897961
30
0
10
-18.000000268220901
20
-61.000000908970833
30
0
0
SPLINE
5
162
100
AcDbEntity
8
0
100
AcDbSpline
70
4
71
5
72
12
73
6
74
0
42
0.000000001
43
0.0000000001
44
0.0000000001
40
0.036372519929830399
40
0.036372519929830399
40
0.036372519929830399
40
0.036372519929830399
40
0.036372519929830399
40
0.036372519929830399
40
0.037340050632679575
40
0.037340050632679575
40
0.037340050632679575
40
0.037340050632679575
40
0.037340050632679575
40
0.037340050632679575
41
1
41
1
41
1
41
1
41
1
41
1
10
-24.000000377360003
20
-64.948200908288129
30
0
10
-23.995195537877958
20
-64.948369160768337
30
0
10
-23.990397545191637
20
-64.948543316863578
30
0
10
-23.985606398910633
20
-64.948723376510188
30
0
10
-23.980822098628902
20
-64.948909339638192
30
0
10
-23.97604464392419
20
-64.949101206171221
30
0
0
SPLINE
5
163
100
AcDbEntity
8
0
100
AcDbSpline
70
4
71
5
72
33
73
27
74
0
42
0.000000001
43
0.0000000001
44
0.0000000001
40
0.13296587460643117
40
0.13296587460643117
40
0.13296587460643117
40
0.13296587460643117
40
0.13296587460643117
40
0.13296587460643117
40
0.16
40
0.20000000000000001
40
0.24000000000000002
40
0.28000000000000003
40
0.32000000000000001
40
0.35999999999999999
40
0.39999999999999997
40
0.43999999999999995
40
0.47999999999999993
40
0.51999999999999991
40
0.55999999999999994
40
0.59999999999999998
40
0.64000000000000001
40
0.68000000000000005
40
0.72000000000000008
40
0.76000000000000012
40
0.80000000000000016
40
0.84000000000000019
40
0.88000000000000023
40
0.92000000000000026
40
0.9600000000000003
40
1
40
1
40
1
40
1
40
1
40
1
41
1
41
1
41
1
41
1
41
1
41
1
41
1
41
1
41
1
41
1
41
1
41
1
41
1
41
1
41
1
41
1
41
1
41
1
41
1
41
1
41
1
41
1
41
1
41
1
41
1
41
1
41
1
10
-22.266742402066519
20
-65.614009444189378
30
0
10
-22.204932335155171
20
-65.682980707748314
30
0
10
-22.06270354480532
20
-65.864473864854233
30
0
10
-21.877337475846108
20
-66.194819508123913
30
0
10
-21.701193222956228
20
-66.73148718399861
30
0
10
-21.557854014286526
20
-67.532010861772321
30
0
10
-21.411884410789611
20
-68.482508290931804
30
0
10
-21.19270350363054
20
-69.485685829952601
30
0
10
-20.842693445495243
20
-70.507892977451263
30
0
10
-20.349897998107682
20
-71.533566879512691
30
0
10
-19.749920781941515
20
-72.56568515598866
30
0
10
-19.106719856001106
20
-73.616606721705068
30
0
10
-18.499621382524346
20
-74.701710860435767
30
0
10
-18.007717919232533
20
-75.831746947431782
30
0
10
-17.696155935277179
20
-77.006145056483774
30
0
10
-17.599537506265737
20
-78.204604681625526
30
0
10
-17.72703182706919
20
-79.391988064807151
30
0
10
-18.070231570100987
20
-80.52488894232016
30
0
10
-18.609932357286056
20
-81.557739633334322
30
0
10
-19.32270495863802
20
-82.448569126164017
30
0
10
-20.188425678359202
20
-83.166243803760494
30
0
10
-21.193342807453863
20
-83.692310526747335
30
0
10
-22.328216411323222
20
-84.01693231666043
30
0
10
-23.335853879309528
20
-84.112639296335772
30
0
10
-24.146589689455986
20
-84.092119602306667
30
0
10
-24.711465918073941
20
-84.037526353757386
30
0
10
-25.00000037252903
20
-84.00000125169754
30
0
0
SPLINE
5
164
100
AcDbEntity
8
0
100
AcDbSpline
70
4
71
5
72
20
73
14
74
0
42
0.000000001
43
0.0000000001
44
0.0000000001
40
0.13772612209639362
40
0.13772612209639362
40
0.13772612209639362
40
0.13772612209639362
40
0.13772612209639362
40
0.13772612209639362
40
0.20000000000000001
40
0.30000000000000004
40
0.40000000000000002
40
0.5
40
0.59999999999999998
40
0.69999999999999996
40
0.79999999999999993
40
0.89999999999999991
40
1
40
1
40
1
40
1
40
1
40
1
41
1
41
1
41
1
41
1
41
1
41
1
41
1
41
1
41
1
41
1
41
1
41
1
41
1
41
1
10
-3.642711310594966
20
-64.949101206176124
30
0
10
-3.6298128673581598
20
-64.858912135755801
30
0
10
-3.5897514360158223
20
-64.626808877134735
30
0
10
-3.4975234691146007
20
-64.264080067415676
30
0
10
-3.3066720460101129
20
-63.791700143083347
30
0
10
-2.9441842607268898
20
-63.242633074565333
30
0
10
-2.401932862161793
20
-62.716560642585108
30
0
10
-1.7110913637920522
20
-62.257573879758894
30
0
10
-0.88272686873484663
20
-61.860676194655639
30
0
10
0.070256496962075587
20
-61.520041614127905
30
0
10
0.92303780029586502
20
-61.288345436864716
30
0
10
1.6100465793828755
20
-61.135983817678266
30
0
10
2.0887823572237729
20
-61.043768580897961
30
0
10
2.3333330651124351
20
-61.000000908970833
30
0
0
LINE
5
165
100
AcDbEntity
8
0
100
AcDbLine
10
-3.6666670242945321
20
-60.000000894069672
30
0
11
-3.666667044026668
21
-64.948200908288129
31
0
0
SPLINE
5
166
100
AcDbEntity
8
0
100
AcDbSpline
70
4
71
5
72
12
73
6
74
0
42
0.000000001
43
0.0000000001
44
0.0000000001
40
0.036372519929830399
40
0.036372519929830399
40
0.036372519929830399
40
0.036372519929830399
40
0.036372519929830399
40
0.036372519929830399
40
0.037340050632679575
40
0.037340050632679575
40
0.037340050632679575
40
0.037340050632679575
40
0.037340050632679575
40
0.037340050632679575
41
1
41
1
41
1
41
1
41
1
41
1
10
-3.666667044026668
20
-64.948200908288129
30
0
10
-3.6618622045446214
20
-64.948369160768337
30
0
10
-3.6570642118583008
20
-64.948543316863578
30
0
10
-3.6522730655772984
20
-64.948723376510188
30
0
10
-3.6474887652955656
20
-64.948909339638192
30
0
10
-3.6427113105908537
20
-64.949101206171221
30
0
0
LINE
5
167
100
AcDbEntity
8
0
100
AcDbLine
10
-5.6666670540968545
20
-60.000000894069672
30
0
11
-3.6666670242945321
21
-60.000000894069672
31
0
0
SPLINE
5
168
100
AcDbEntity
8
0
100
AcDbSpline
70
4
71
5
72
33
73
27
74
0
42
0.000000001
43
0.0000000001
44
0.0000000001
40
0.13296587460643117
40
0.13296587460643117
40
0.13296587460643117
40
0.13296587460643117
40
0.13296587460643117
40
0.13296587460643117
40
0.16
40
0.20000000000000001
40
0.24000000000000002
40
0.28000000000000003
40
0.32000000000000001
40
0.35999999999999999
40
0.39999999999999997
40
0.43999999999999995
40
0.47999999999999993
40
0.51999999999999991
40
0.55999999999999994
40
0.59999999999999998
40
0.64000000000000001
40
0.68000000000000005
40
0.72000000000000008
40
0.76000000000000012
40
0.80000000000000016
40
0.84000000000000019
40
0.88000000000000023
40
0.92000000000000026
40
0.9600000000000003
40
1
40
1
40
1
40
1
40
1
40
1
41
1
41
1
41
1
41
1
41
1
41
1
41
1
41
1
41
1
41
1
41
1
41
1
41
1
41
1
41
1
41
1
41
1
41
1
41
1
41
1
41
1
41
1
41
1
41
1
41
1
41
1
41
1
10
-1.9334090687331829
20
-65.614009444189378
30
0
10
-1.8715990018218331
20
-65.682980707748314
30
0
10
-1.7293702114719833
20
-65.864473864854233
30
0
10
-1.5440041425127715
20
-66.194819508123913
30
0
10
-1.3678598896228911
20
-66.73148718399861
30
0
10
-1.2245206809531917
20
-67.532010861772321
30
0
10
-1.0785510774562734
20
-68.482508290931804
30
0
10
-0.85937017029720231
20
-69.485685829952601
30
0
10
-0.50936011216190735
20
-70.507892977451263
30
0
10
-0.016564664774345594
20
-71.533566879512691
30
0
10
0.58341255139182202
20
-72.56568515598866
30
0
10
1.2266134773322301
20
-73.616606721705068
30
0
10
1.8337119508089916
20
-74.701710860435767
30
0
10
2.3256154141008034
20
-75.831746947431782
30
0
10
2.6371773980561564
20
-77.006145056483774
30
0
10
2.7337958270675999
20
-78.204604681625526
30
0
10
2.6063015062641481
20
-79.391988064807151
30
0
10
2.2631017632323491
20
-80.52488894232016
30
0
10
1.7234009760472802
20
-81.557739633334322
30
0
10
1.0106283746953171
20
-82.448569126164017
30
0
10
0.14490765497413349
20
-83.166243803760494
30
0
10
-0.86000947412052664
20
-83.692310526747335
30
0
10
-1.9948830779898863
20
-84.01693231666043
30
0
10
-3.0025205459761928
20
-84.112639296335772
30
0
10
-3.8132563561226496
20
-84.092119602306667
30
0
10
-4.3781325847406061
20
-84.037526353757386
30
0
10
-4.6666670391956933
20
-84.00000125169754
30
0
0
SPLINE
5
169
100
AcDbEntity
8
0
100
AcDbSpline
70
4
71
5
72
36
73
30
74
0
42
0.000000001
43
0.0000000001
44
0.0000000001
40
0.036372519929830587
40
0.036372519929830587
40
0.036372519929830587
40
0.036372519929830587
40
0.036372519929830587
40
0.036372519929830587
40
0.040000000000000001
40
0.080000000000000002
40
0.12
40
0.16
40
0.20000000000000001
40
0.24000000000000002
40
0.28000000000000003
40
0.32000000000000001
40
0.35999999999999999
40
0.39999999999999997
40
0.43999999999999995
40
0.47999999999999993
40
0.51999999999999991
40
0.55999999999999994
40
0.59999999999999998
40
0.64000000000000001
40
0.68000000000000005
40
0.72000000000000008
40
0.76000000000000012
40
0.80000000000000016
40
0.84000000000000019
40
0.88000000000000023
40
0.92000000000000026
40
0.9600000000000003
40
1
40
1
40
1
40
1
40
1
40
1
41
1
41
1
41
1
41
1
41
1
41
1
41
1
41
1
41
1
41
1
41
1
41
1
41
1
41
1
41
1
41
1
41
1
41
1
41
1
41
1
41
1
41
1
41
1
41
1
41
1
41
1
41
1
41
1
41
1
41
1
10
-5.666667034364723
20
-64.948200908288129
30
0
10
-5.684681407872616
20
-64.948831722914321
30
0
10
-5.9001816665430917
20
-64.957416544875286
30
0
10
-6.2865847705925182
20
-64.996880453938829
30
0
10
-6.7824313644224477
20
-65.120375186358856
30
0
10
-7.2935570621448242
20
-65.410534262449303
30
0
10
-7.708329005207335
20
-65.957114894453341
30
0
10
-7.9555374020891367
20
-66.675992019126141
30
0
10
-8.108813397438194
20
-67.532010861772321
30
0
10
-8.2547830009351131
20
-68.482508290931804
30
0
10
-8.4739639080941842
20
-69.485685829952601
30
0
10
-8.8239739662294792
20
-70.507892977451263
30
0
10
-9.3167694136170418
20
-71.533566879512691
30
0
10
-9.9167466297832085
20
-72.56568515598866
30
0
10
-10.559947555723618
20
-73.616606721705068
30
0
10
-11.167046029200378
20
-74.701710860435767
30
0
10
-11.658949492492191
20
-75.831746947431782
30
0
10
-11.970511476447543
20
-77.006145056483774
30
0
10
-12.067129905458987
20
-78.204604681625526
30
0
10
-11.939635584655534
20
-79.391988064807151
30
0
10
-11.596435841623736
20
-80.52488894232016
30
0
10
-11.056735054438667
20
-81.557739633334322
30
0
10
-10.343962453086704
20
-82.448569126164017
30
0
10
-9.47824173336552
20
-83.166243803760494
30
0
10
-8.4733246042708608
20
-83.692310526747335
30
0
10
-7.3384510004015002
20
-84.01693231666043
30
0
10
-6.3308135324151937
20
-84.112639296335772
30
0
10
-5.5200777222687369
20
-84.092119602306667
30
0
10
-4.9552014936507804
20
-84.037526353757386
30
0
10
-4.6666670391956933
20
-84.00000125169754
30
0
0
LINE
5
170
100
AcDbEntity
8
0
100
AcDbLine
10
-5.666667034364723
20
-64.948200908288129
30
0
11
-5.6666670540968545
21
-60.000000894069672
31
0
0
SPLINE
5
171
100
AcDbEntity
8
0
100
AcDbSpline
70
4
71
5
72
20
73
14
74
0
42
0.000000001
43
0.0000000001
44
0.0000000001
40
0.15158162799657493
40
0.15158162799657493
40
0.15158162799657493
40
0.15158162799657493
40
0.15158162799657493
40
0.15158162799657493
40
0.20000000000000001
40
0.30000000000000004
40
0.40000000000000002
40
0.5
40
0.59999999999999998
40
0.69999999999999996
40
0.79999999999999993
40
0.89999999999999991
40
1
40
1
40
1
40
1
40
1
40
1
41
1
41
1
41
1
41
1
41
1
41
1
41
1
41
1
41
1
41
1
41
1
41
1
41
1
41
1
10
-1.9334086327490141
20
-65.614009053449891
30
0
10
-1.8305038003367491
20
-65.585818305752085
30
0
10
-1.5190006252168242
20
-65.49762806127552
30
0
10
-1.0180258941298614
20
-65.340802931197231
30
0
10
-0.36515031200838433
20
-65.098380440331766
30
0
10
0.37775740459362828
20
-64.742428012717482
30
0
10
1.0685989029728393
20
-64.283441249876589
30
0
10
1.6108503015507103
20
-63.757368817870798
30
0
10
2.0029206765182916
20
-63.163492444156319
30
0
10
2.2529297759397404
20
-62.505478044110745
30
0
10
2.3470524978100138
20
-61.93126161367956
30
0
10
2.361627954943506
20
-61.475308843875816
30
0
10
2.34684744493036
20
-61.160280172981096
30
0
10
2.3333330651124351
20
-61.000000908970833
30
0
0
SPLINE
5
172
100
AcDbEntity
8
0
100
AcDbSpline
70
4
71
5
72
36
73
30
74
0
42
0.000000001
43
0.0000000001
44
0.0000000001
40
0
40
0
40
0
40
0
40
0
40
0
40
0.040000000000000001
40
0.080000000000000002
40
0.12
40
0.16
40
0.20000000000000001
40
0.24000000000000002
40
0.28000000000000003
40
0.32000000000000001
40
0.35999999999999999
40
0.39999999999999997
40
0.43999999999999995
40
0.47999999999999993
40
0.51999999999999991
40
0.55999999999999994
40
0.59999999999999998
40
0.64000000000000001
40
0.68000000000000005
40
0.72000000000000008
40
0.76000000000000012
40
0.80000000000000016
40
0.84000000000000019
40
0.88000000000000023
40
0.92000000000000026
40
0.9600000000000003
40
1
40
1
40
1
40
1
40
1
40
1
41
1
41
1
41
1
41
1
41
1
41
1
41
1
41
1
41
1
41
1
41
1
41
1
41
1
41
1
41
1
41
1
41
1
41
1
41
1
41
1
41
1
41
1
41
1
41
1
41
1
41
1
41
1
41
1
41
1
41
1
10
14.266743892182623
20
-65.614009444189378
30
0
10
14.238437830406738
20
-65.645594992379458
30
0
10
14.183849429518984
20
-65.704472210918595
30
0
10
14.108044647932816
20
-65.780022582893082
30
0
10
14.018122127038628
20
-65.898201148490045
30
0
10
13.913823516995576
20
-66.252043827355592
30
0
10
13.794349210205928
20
-66.882631304613454
30
0
10
13.629453275081767
20
-67.762565960724274
30
0
10
13.38979289246765
20
-68.810743510317437
30
0
10
13.05422857709031
20
-69.924010513248874
30
0
10
12.61718307489649
20
-71.01277727283356
30
0
10
12.096908994013917
20
-72.037400594284108
30
0
10
11.529490975075785
20
-72.99763907989238
30
0
10
10.961873571475515
20
-73.918362995918656
30
0
10
10.445484067690343
20
-74.83715007220755
30
0
10
10.029495821143374
20
-75.790903309967433
30
0
10
9.7546604414306657
20
-76.80382787312675
30
0
10
9.6456506387174983
20
-77.872370674889979
30
0
10
9.712837926852373
20
-78.969806636792526
30
0
10
9.9561082640594734
20
-80.055179207503002
30
0
10
10.367780295705709
20
-81.080536808492582
30
0
10
10.935739979866614
20
-81.998843644627641
30
0
10
11.646314389928342
20
-82.771464319610416
30
0
10
12.487239716682225
20
-83.376328033707722
30
0
10
13.448003897710796
20
-83.804175273433529
30
0
10
14.520063312887725
20
-84.054470103129603
30
0
10
15.461669821050707
20
-84.116185125848872
30
0
10
16.213322232925123
20
-84.087060805888541
30
0
10
16.734439394362127
20
-84.034538751714337
30
0
10
17.000001862645135
20
-84.00000125169754
30
0
0
LINE
5
173
100
AcDbEntity
8
0
100
AcDbLine
10
18.000001877546296
20
-60.000000894069672
30
0
11
16.000001847743974
21
-60.000000894069672
31
0
0
SPLINE
5
174
100
AcDbEntity
8
0
100
AcDbSpline
70
4
71
5
72
21
73
15
74
0
42
0.000000001
43
0.0000000001
44
0.0000000001
40
0
40
0
40
0
40
0
40
0
40
0
40
0.10000000000000001
40
0.20000000000000001
40
0.30000000000000004
40
0.40000000000000002
40
0.5
40
0.59999999999999998
40
0.69999999999999996
40
0.79999999999999993
40
0.89999999999999991
40
1
40
1
40
1
40
1
40
1
40
1
41
1
41
1
41
1
41
1
41
1
41
1
41
1
41
1
41
1
41
1
41
1
41
1
41
1
41
1
41
1
10
34.600077225515975
20
-65.614009444189378
30
0
10
34.434194438184491
20
-65.568565904800153
30
0
10
34.110060443164748
20
-65.47587334465554
30
0
10
33.646753101960286
20
-65.331418245294401
30
0
10
33.074222204513518
20
-65.125694729395434
30
0
10
32.432311512721633
20
-64.833636848653981
30
0
10
31.864186096698003
20
-64.490192481425339
30
0
10
31.372415635321577
20
-64.079849085944701
30
0
10
30.962280654733028
20
-63.592618411498606
30
0
10
30.640927979000811
20
-63.031101077268723
30
0
10
30.417365020302228
20
-62.405531113657517
30
0
10
30.324814174727631
20
-61.86364563902935
30
0
10
30.308048322651146
20
-61.43855576015271
30
0
10
30.320900990012479
20
-61.147468176370566
30
0
10
30.333335091670346
20
-61.000000908970833
30
0
0
SPLINE
5
175
100
AcDbEntity
8
0
100
AcDbSpline
70
4
71
5
72
36
73
30
74
0
42
0.000000001
43
0.0000000001
44
0.0000000001
40
0
40
0
40
0
40
0
40
0
40
0
40
0.040000000000000001
40
0.080000000000000002
40
0.12
40
0.16
40
0.20000000000000001
40
0.24000000000000002
40
0.28000000000000003
40
0.32000000000000001
40
0.35999999999999999
40
0.39999999999999997
40
0.43999999999999995
40
0.47999999999999993
40
0.51999999999999991
40
0.55999999999999994
40
0.59999999999999998
40
0.64000000000000001
40
0.68000000000000005
40
0.72000000000000008
40
0.76000000000000012
40
0.80000000000000016
40
0.84000000000000019
40
0.88000000000000023
40
0.92000000000000026
40
0.9600000000000003
40
1
40
1
40
1
40
1
40
1
40
1
41
1
41
1
41
1
41
1
41
1
41
1
41
1
41
1
41
1
41
1
41
1
41
1
41
1
41
1
41
1
41
1
41
1
41
1
41
1
41
1
41
1
41
1
41
1
41
1
41
1
41
1
41
1
41
1
41
1
41
1
10
38.333335191147498
20
-64.948200908288129
30
0
10
38.506820636595712
20
-64.954275899259727
30
0
10
38.836286552548003
20
-64.980319062708375
30
0
10
39.277979197300596
20
-65.061054617371582
30
0
10
39.761454377878422
20
-65.256331401322143
30
0
10
40.19586682933982
20
-65.664110111358966
30
0
10
40.480099816006202
20
-66.247811496052762
30
0
10
40.659287333484642
20
-66.99753351223363
30
0
10
40.801380646860437
20
-67.87884763158398
30
0
10
40.978495192731927
20
-68.846978490751582
30
0
10
41.25206474428601
20
-69.856809009188822
30
0
10
41.657341678599408
20
-70.873877000525511
30
0
10
42.185357021493097
20
-71.886645504314203
30
0
10
42.792582461408166
20
-72.900960606078002
30
0
10
43.414636705425949
20
-73.931791533761739
30
0
10
43.978369314547159
20
-74.995979317034951
30
0
10
44.414235834563165
20
-76.10477277111211
30
0
10
44.669133706602715
20
-77.255993972615158
30
0
10
44.717576066235168
20
-78.427416237827686
30
0
10
44.554270772643754
20
-79.583742383177793
30
0
10
44.188562254066461
20
-80.682220938775004
30
0
10
43.63826979101632
20
-81.678921853945695
30
0
10
42.92435222016298
20
-82.534184712004247
30
0
10
42.06445043209002
20
-83.219829375301714
30
0
10
41.071146814557487
20
-83.719618974743582
30
0
10
39.953225127745434
20
-84.025440798902608
30
0
10
38.963483138860717
20
-84.113038416298053
30
0
10
38.168728582647411
20
-84.090652906374515
30
0
10
37.615669991087238
20
-84.036720062355741
30
0
10
37.333335195978485
20
-84.00000125169754
30
0
0
SPLINE
5
176
100
AcDbEntity
8
0
100
AcDbSpline
70
4
71
5
72
16
73
10
74
0
42
0.000000001
43
0.0000000001
44
0.0000000001
40
0
40
0
40
0
40
0
40
0
40
0
40
0.20000000000000001
40
0.40000000000000002
40
0.60000000000000009
40
0.80000000000000004
40
1
40
1
40
1
40
1
40
1
40
1
41
1
41
1
41
1
41
1
41
1
41
1
41
1
41
1
41
1
41
1
10
36.333335200809451
20
-64.948200908288129
30
0
10
36.33237423291304
20
-64.948234558784165
30
0
10
36.330452924855202
20
-64.94830240104713
30
0
10
36.327572844442749
20
-64.948405786934714
30
0
10
36.323736122711054
20
-64.948546553970075
30
0
10
36.318944976295981
20
-64.948726613593379
30
0
10
36.315115863574817
20
-64.948873941922884
30
0
10
36.312246567848483
20
-64.948986627507963
30
0
10
36.310334958314584
20
-64.949062832864598
30
0
10
36.309379467373645
20
-64.949101206171207
30
0
0
SPLINE
5
177
100
AcDbEntity
8
0
100
AcDbSpline
70
4
71
5
72
36
73
30
74
0
42
0.000000001
43
0.0000000001
44
0.0000000001
40
0
40
0
40
0
40
0
40
0
40
0
40
0.040000000000000001
40
0.080000000000000002
40
0.12
40
0.16
40
0.20000000000000001
40
0.24000000000000002
40
0.28000000000000003
40
0.32000000000000001
40
0.35999999999999999
40
0.39999999999999997
40
0.43999999999999995
40
0.47999999999999993
40
0.51999999999999991
40
0.55999999999999994
40
0.59999999999999998
40
0.64000000000000001
40
0.68000000000000005
40
0.72000000000000008
40
0.76000000000000012
40
0.80000000000000016
40
0.84000000000000019
40
0.88000000000000023
40
0.92000000000000026
40
0.9600000000000003
40
1
40
1
40
1
40
1
40
1
40
1
41
1
41
1
41
1
41
1
41
1
41
1
41
1
41
1
41
1
41
1
41
1
41
1
41
1
41
1
41
1
41
1
41
1
41
1
41
1
41
1
41
1
41
1
41
1
41
1
41
1
41
1
41
1
41
1
41
1
41
1
10
34.600077225515975
20
-65.614009444189378
30
0
10
34.571771163740088
20
-65.645594992379458
30
0
10
34.517182762852272
20
-65.704472210918595
30
0
10
34.441377981265845
20
-65.780022582893039
30
0
10
34.351455460371902
20
-65.898201148490017
30
0
10
34.247156850329247
20
-66.25204382735572
30
0
10
34.127682543539692
20
-66.882631304613724
30
0
10
33.962786608415371
20
-67.762565960724586
30
0
10
33.723126225800982
20
-68.810743510317536
30
0
10
33.387561910423614
20
-69.924010513248831
30
0
10
32.95051640822993
20
-71.012777272833517
30
0
10
32.4302423273475
20
-72.037400594284023
30
0
10
31.862824308409351
20
-72.997639079892139
30
0
10
31.295206904808985
20
-73.918362995918329
30
0
10
30.778817401023638
20
-74.837150072207194
30
0
10
30.362829154476682
20
-75.790903309967291
30
0
10
30.08799377476409
20
-76.803827873127105
30
0
10
29.978983972051193
20
-77.872370674890988
30
0
10
30.046171260186302
20
-78.969806636793791
30
0
10
30.289441597393445
20
-80.055179207504153
30
0
10
30.701113629039476
20
-81.080536808493164
30
0
10
31.269073313199989
20
-81.998843644627669
30
0
10
31.979647723261238
20
-82.771464319609933
30
0
10
32.820573050014765
20
-83.376328033707082
30
0
10
33.781337231043253
20
-83.804175273432961
30
0
10
34.853396646220446
20
-84.054470103129276
30
0
10
35.795003154383799
20
-84.11618512584873
30
0
10
36.54665556625843
20
-84.087060805888513
30
0
10
37.067772727695477
20
-84.034538751714337
30
0
10
37.333335195978485
20
-84.00000125169754
30
0
0
LINE
5
178
100
AcDbEntity
8
0
100
AcDbLine
10
18.000001857814169
20
-64.948200908288129
30
0
11
18.000001877546296
21
-60.000000894069672
31
0
0
LINE
5
179
100
AcDbEntity
8
0
100
AcDbLine
10
38.333335210879646
20
-60.000000894069672
30
0
11
36.333335181077324
21
-60.000000894069672
31
0
0
LINE
5
180
100
AcDbEntity
8
0
100
AcDbLine
10
16.000001847743974
20
-60.000000894069672
30
0
11
16.000001867476108
21
-64.948200908288129
31
0
0
SPLINE
5
181
100
AcDbEntity
8
0
100
AcDbSpline
70
4
71
5
72
21
73
15
74
0
42
0.000000001
43
0.0000000001
44
0.0000000001
40
0
40
0
40
0
40
0
40
0
40
0
40
0.10000000000000001
40
0.20000000000000001
40
0.30000000000000004
40
0.40000000000000002
40
0.5
40
0.59999999999999998
40
0.69999999999999996
40
0.79999999999999993
40
0.89999999999999991
40
1
40
1
40
1
40
1
40
1
40
1
41
1
41
1
41
1
41
1
41
1
41
1
41
1
41
1
41
1
41
1
41
1
41
1
41
1
41
1
41
1
10
36.309379467373645
20
-64.949101206171207
30
0
10
36.293929782677225
20
-64.841073231363552
30
0
10
36.258022601308866
20
-64.629283253939917
30
0
10
36.189134853209197
20
-64.324394557433862
30
0
10
36.061757669307624
20
-63.941474580894138
30
0
10
35.813505412611214
20
-63.492323672389752
30
0
10
35.442181754801709
20
-63.062583714040755
30
0
10
34.921026909867471
20
-62.6457871210429
30
0
10
34.247222533465859
20
-62.243682399858926
30
0
10
33.434130698975089
20
-61.864441849075327
30
0
10
32.501510020641987
20
-61.519855795978131
30
0
10
31.675843724872585
20
-61.282214337654601
30
0
10
31.018630573110396
20
-61.130275545503352
30
0
10
30.564441522372519
20
-61.041362434875012
30
0
10
30.333335091670346
20
-61.000000908970833
30
0
0
SPLINE
5
182
100
AcDbEntity
8
0
100
AcDbSpline
70
4
71
5
72
21
73
15
74
0
42
0.000000001
43
0.0000000001
44
0.0000000001
40
0
40
0
40
0
40
0
40
0
40
0
40
0.10000000000000001
40
0.20000000000000001
40
0.30000000000000004
40
0.40000000000000002
40
0.5
40
0.59999999999999998
40
0.69999999999999996
40
0.79999999999999993
40
0.89999999999999991
40
1
40
1
40
1
40
1
40
1
40
1
41
1
41
1
41
1
41
1
41
1
41
1
41
1
41
1
41
1
41
1
41
1
41
1
41
1
41
1
41
1
10
14.266743892182623
20
-65.614009444189378
30
0
10
14.100861104851145
20
-65.568565904800153
30
0
10
13.776727109831498
20
-65.475873344655639
30
0
10
13.313419768627352
20
-65.331418245295055
30
0
10
12.740888871180964
20
-65.125694729396713
30
0
10
12.098978179388967
20
-64.833636848655345
30
0
10
11.530852763365038
20
-64.49019248142622
30
0
10
11.039082301988234
20
-64.079849085944772
30
0
10
10.628947321399497
20
-63.59261841149808
30
0
10
10.307594645667368
20
-63.031101077267991
30
0
10
10.084031686968942
20
-62.405531113657005
30
0
10
9.991480841394365
20
-61.863645639029102
30
0
10
9.97471498931783
20
-61.438555760152653
30
0
10
9.9875676566791363
20
-61.147468176370559
30
0
10
10.000001758337005
20
-61.000000908970833
30
0
0
LINE
5
183
100
AcDbEntity
8
0
100
AcDbLine
10
36.333335181077324
20
-60.000000894069672
30
0
11
36.333335200809451
21
-64.948200908288129
31
0
0
SPLINE
5
184
100
AcDbEntity
8
0
100
AcDbSpline
70
4
71
5
72
21
73
15
74
0
42
0.000000001
43
0.0000000001
44
0.0000000001
40
0
40
0
40
0
40
0
40
0
40
0
40
0.10000000000000001
40
0.20000000000000001
40
0.30000000000000004
40
0.40000000000000002
40
0.5
40
0.59999999999999998
40
0.69999999999999996
40
0.79999999999999993
40
0.89999999999999991
40
1
40
1
40
1
40
1
40
1
40
1
41
1
41
1
41
1
41
1
41
1
41
1
41
1
41
1
41
1
41
1
41
1
41
1
41
1
41
1
41
1
10
15.976046134040294
20
-64.949101206171207
30
0
10
15.960596449343873
20
-64.841073231363552
30
0
10
15.924689267975374
20
-64.629283253939889
30
0
10
15.855801519874912
20
-64.32439455743372
30
0
10
15.728424335972491
20
-63.941474580893676
30
0
10
15.480172079276509
20
-63.492323672389375
30
0
10
15.108848421468203
20
-63.062583714040663
30
0
10
14.587693576535079
20
-62.645787121043185
30
0
10
13.913889200133898
20
-62.243682399859246
30
0
10
13.100797365642908
20
-61.864441849075504
30
0
10
12.168176687309224
20
-61.519855795978138
30
0
10
11.342510391539413
20
-61.28221433765458
30
0
10
10.685297239777064
20
-61.130275545503352
30
0
10
10.23110818903918
20
-61.041362434875012
30
0
10
10.000001758337005
20
-61.000000908970833
30
0
0
LINE
5
185
100
AcDbEntity
8
0
100
AcDbLine
10
38.333335191147498
20
-64.948200908288129
30
0
11
38.333335210879646
21
-60.000000894069672
31
0
0
SPLINE
5
186
100
AcDbEntity
8
0
100
AcDbSpline
70
4
71
5
72
16
73
10
74
0
42
0.000000001
43
0.0000000001
44
0.0000000001
40
0
40
0
40
0
40
0
40
0
40
0
40
0.20000000000000001
40
0.40000000000000002
40
0.60000000000000009
40
0.80000000000000004
40
1
40
1
40
1
40
1
40
1
40
1
41
1
41
1
41
1
41
1
41
1
41
1
41
1
41
1
41
1
41
1
10
16.000001867476108
20
-64.948200908288129
30
0
10
15.9990408995797
20
-64.948234558784165
30
0
10
15.997119591521859
20
-64.94830240104713
30
0
10
15.994239511109265
20
-64.948405786934714
30
0
10
15.990402789377518
20
-64.948546553970075
30
0
10
15.985611642962503
20
-64.948726613593379
30
0
10
15.981782530241457
20
-64.948873941922884
30
0
10
15.978913234515142
20
-64.948986627507963
30
0
10
15.977001624981234
20
-64.949062832864598
30
0
10
15.976046134040294
20
-64.949101206171207
30
0
0
SPLINE
5
187
100
AcDbEntity
8
0
100
AcDbSpline
70
4
71
5
72
36
73
30
74
0
42
0.000000001
43
0.0000000001
44
0.0000000001
40
0
40
0
40
0
40
0
40
0
40
0
40
0.040000000000000001
40
0.080000000000000002
40
0.12
40
0.16
40
0.20000000000000001
40
0.24000000000000002
40
0.28000000000000003
40
0.32000000000000001
40
0.35999999999999999
40
0.39999999999999997
40
0.43999999999999995
40
0.47999999999999993
40
0.51999999999999991
40
0.55999999999999994
40
0.59999999999999998
40
0.64000000000000001
40
0.68000000000000005
40
0.72000000000000008
40
0.76000000000000012
40
0.80000000000000016
40
0.84000000000000019
40
0.88000000000000023
40
0.92000000000000026
40
0.9600000000000003
40
1
40
1
40
1
40
1
40
1
40
1
41
1
41
1
41
1
41
1
41
1
41
1
41
1
41
1
41
1
41
1
41
1
41
1
41
1
41
1
41
1
41
1
41
1
41
1
41
1
41
1
41
1
41
1
41
1
41
1
41
1
41
1
41
1
41
1
41
1
41
1
10
18.000001857814169
20
-64.948200908288129
30
0
10
18.17348730326238
20
-64.954275899259727
30
0
10
18.502953219214586
20
-64.980319062708446
30
0
10
18.944645863966766
20
-65.06105461737188
30
0
10
19.428121044544323
20
-65.256331401322697
30
0
10
19.862533496006154
20
-65.664110111359363
30
0
10
20.146766482673144
20
-66.247811496052535
30
0
10
20.325954000152016
20
-66.997533512232522
30
0
10
20.468047313527901
20
-67.878847631582587
30
0
10
20.645161859399188
20
-68.846978490750587
30
0
10
20.918731410952734
20
-69.856809009188709
30
0
10
21.32400834526559
20
-70.873877000526221
30
0
10
21.852023688158788
20
-71.886645504315169
30
0
10
22.459249128073623
20
-72.900960606078741
30
0
10
23.081303372091529
20
-73.931791533761924
30
0
10
23.645035981213262
20
-74.995979317034795
30
0
10
24.080902501229865
20
-76.104772771112081
30
0
10
24.335800373270096
20
-77.255993972615585
30
0
10
24.384242732902965
20
-78.427416237828595
30
0
10
24.220937439311541
20
-79.583742383178816
30
0
10
23.855228920733815
20
-80.682220938775671
30
0
10
23.304936457683123
20
-81.678921853945837
30
0
10
22.59101888682936
20
-82.534184712004034
30
0
10
21.731117098756357
20
-83.219829375301316
30
0
10
20.737813481224016
20
-83.719618974743298
30
0
10
19.619891794412091
20
-84.02544079890248
30
0
10
18.630149805527388
20
-84.113038416298039
30
0
10
17.835395249314058
20
-84.090652906374544
30
0
10
17.282336657753884
20
-84.036720062355741
30
0
10
17.000001862645135
20
-84.00000125169754
30
0
0
ENDSEC
0
SECTION
2
OBJECTS
0
DICTIONARY
5
C
100
AcDbDictionary
3
ACAD_GROUP
350
D
3
ACAD_MLINESTYLE
350
17
0
DICTIONARY
5
D
100
AcDbDictionary
0
DICTIONARY
5
1A
330
C
100
AcDbDictionary
0
DICTIONARY
5
17
100
AcDbDictionary
0
ENDSEC
0
EOF
