0
SECTION
2
HEADER
9
$INSUNITS
70
4
9
$ACADVER
1
AC1014
9
$HANDSEED
5
FFFF
0
ENDSEC
0
SECTION
2
TABLES
0
TABLE
2
VPORT
5
8
100
AcDbSymbolTable
0
ENDTAB
0
TABLE
2
LTYPE
5
5
100
AcDbSymbolTable
0
LTYPE
5
14
100
AcDbSymbolTableRecord
100
AcDbLinetypeTableRecord
2
BYBLOCK
70
0
0
LTYPE
5
15
100
AcDbSymbolTableRecord
100
AcDbLinetypeTableRecord
2
BYLAYER
70
0
0
LTYPE
5
16
100
AcDbSymbolTableRecord
100
AcDbLinetypeTableRecord
2
DASHED
70
0
3
Dashed __ __ __ __ __ __ __ __ __ __ __ __ __ _
72
65
73
2
40
0.75
49
0.5
74
0
49
-0.25
74
0
0
ENDTAB
0
TABLE
2
LAYER
5
2
100
AcDbSymbolTable
70
2
0
LAYER
5
50
100
AcDbSymbolTableRecord
100
AcDbLayerTableRecord
2
0
70
0
62
7
6
CONTINUOUS
0
ENDTAB
0
TABLE
2
STYLE
5
3
100
AcDbSymbolTable
70
1
0
STYLE
5
11
100
AcDbSymbolTableRecord
100
AcDbTextStyleTableRecord
2
STANDARD
70
0
0
ENDTAB
0
TABLE
2
VIEW
5
6
100
AcDbSymbolTable
70
0
0
ENDTAB
0
TABLE
2
UCS
5
7
100
AcDbSymbolTable
70
0
0
ENDTAB
0
TABLE
2
APPID
5
9
100
AcDbSymbolTable
70
2
0
APPID
5
12
100
AcDbSymbolTableRecord
100
AcDbRegAppTableRecord
2
ACAD
70
0
0
ENDTAB
0
TABLE
2
DIMSTYLE
5
A
100
AcDbSymbolTable
70
1
0
ENDTAB
0
TABLE
2
BLOCK_RECORD
5
1
100
AcDbSymbolTable
70
1
0
BLOCK_RECORD
5
1F
100
AcDbSymbolTableRecord
100
AcDbBlockTableRecord
2
*MODEL_SPACE
0
BLOCK_RECORD
5
1B
100
AcDbSymbolTableRecord
100
AcDbBlockTableRecord
2
*PAPER_SPACE
0
ENDTAB
0
ENDSEC
0
SECTION
2
BLOCKS
0
BLOCK
5
20
100
AcDbEntity
100
AcDbBlockBegin
2
*MODEL_SPACE
0
ENDBLK
5
21
100
AcDbEntity
100
AcDbBlockEnd
0
BLOCK
5
1C
100
AcDbEntity
100
AcDbBlockBegin
2
*PAPER_SPACE
0
ENDBLK
5
1D
100
AcDbEntity
100
AcDbBlockEnd
0
ENDSEC
0
SECTION
2
ENTITIES
0
POINT
5
100
100
AcDbEntity
8
0
100
AcDbPoint
10
-45
20
-140
30
0
0
POINT
5
101
100
AcDbEntity
8
0
100
AcDbPoint
10
65
20
-140
30
0
0
POINT
5
102
100
AcDbEntity
8
0
100
AcDbPoint
10
17.500001676380634
20
-212.00000390410423
30
0
0
POINT
5
103
100
AcDbEntity
8
0
100
AcDbPoint
10
-12.499998323619366
20
-212.00000390410423
30
0
0
POINT
5
104
100
AcDbEntity
8
0
100
AcDbPoint
10
77.500001676380634
20
-212.00000390410423
30
0
0
POINT
5
105
100
AcDbEntity
8
0
100
AcDbPoint
10
47.500001676380634
20
-212.00000390410423
30
0
0
POINT
5
106
100
AcDbEntity
8
0
100
AcDbPoint
10
87.500001676380634
20
-252.00000390410423
30
0
0
POINT
5
107
100
AcDbEntity
8
0
100
AcDbPoint
10
107.50000167638063
20
-212.00000390410423
30
0
0
POINT
5
108
100
AcDbEntity
8
0
100
AcDbPoint
10
147.50000167638063
20
-252.00000390410423
30
0
0
POINT
5
109
100
AcDbEntity
8
0
100
AcDbPoint
10
117.50000167638063
20
-252.00000390410423
30
0
0
POINT
5
110
100
AcDbEntity
8
0
100
AcDbPoint
10
-102.49999832361937
20
-212.00000390410423
30
0
0
POINT
5
111
100
AcDbEntity
8
0
100
AcDbPoint
10
-132.49999832361937
20
-212.00000390410423
30
0
0
POINT
5
112
100
AcDbEntity
8
0
100
AcDbPoint
10
-42.499998323619366
20
-212.00000390410423
30
0
0
POINT
5
113
100
AcDbEntity
8
0
100
AcDbPoint
10
-72.499998323619366
20
-212.00000390410423
30
0
0
LWPOLYLINE
5
114
100
AcDbEntity
8
0
100
AcDbPolyline
90
4
70
1
43
0.0
10
-110
20
-100
10
130
20
-100
10
130
20
-180
10
-110
20
-180
0
CIRCLE
5
115
100
AcDbEntity
8
0
100
AcDbCircle
10
10
20
-140
30
0
40
3.749999999999992
210
0
220
0
230
1
0
LWPOLYLINE
5
116
100
AcDbEntity
8
0
100
AcDbPolyline
90
4
70
1
43
0.0
10
-46.499999999999986
20
-135
10
-43.500000000000014
20
-134.99999999999997
10
-43.500000000000014
20
-144.99999999999997
10
-46.499999999999986
20
-144.99999999999997
0
LWPOLYLINE
5
117
100
AcDbEntity
8
0
100
AcDbPolyline
90
4
70
1
43
0.0
10
66.499999999999986
20
-145
10
66.499999999999986
20
-135
10
63.500000000000014
20
-135
10
63.500000000000014
20
-145
0
CIRCLE
5
118
100
AcDbEntity
8
0
100
AcDbCircle
10
40
20
-260
30
0
40
30
210
0
220
0
230
1
0
CIRCLE
5
119
100
AcDbEntity
8
0
100
AcDbCircle
10
60
20
-260
30
0
40
3.75
210
0
220
0
230
1
0
LWPOLYLINE
5
120
100
AcDbEntity
8
0
100
AcDbPolyline
90
4
70
1
43
0.0
10
5
20
-200
10
30
20
-200
10
30
20
-225
10
5
20
-225
0
LWPOLYLINE
5
121
100
AcDbEntity
8
0
100
AcDbPolyline
90
4
70
1
43
0.0
10
0
20
-200
10
0
20
-225
10
-25
20
-225
10
-25
20
-200
0
CIRCLE
5
122
100
AcDbEntity
8
0
100
AcDbCircle
10
40
20
-260
30
0
40
3.75
210
0
220
0
230
1
0
LWPOLYLINE
5
123
100
AcDbEntity
8
0
100
AcDbPolyline
90
4
70
1
43
0.0
10
60
20
-200
10
60
20
-225
10
35
20
-225
10
35
20
-200
0
LWPOLYLINE
5
124
100
AcDbEntity
8
0
100
AcDbPolyline
90
4
70
1
43
0.0
10
65
20
-200
10
90
20
-200
10
90
20
-225
10
65
20
-225
0
LWPOLYLINE
5
125
100
AcDbEntity
8
0
100
AcDbPolyline
90
4
70
1
43
0.0
10
160
20
-265
10
135
20
-265
10
135
20
-240
10
160
20
-240
0
LWPOLYLINE
5
126
100
AcDbEntity
8
0
100
AcDbPolyline
90
4
70
1
43
0.0
10
85.650001676380612
20
-253.96659994803397
42
0.39643457084880407
10
89.350001676380657
20
-253.96659994803397
10
89.350001676380657
20
-250.03340786017449
42
0.39643457084880662
10
85.650001676380612
20
-250.03340786017452
0
LWPOLYLINE
5
127
100
AcDbEntity
8
0
100
AcDbPolyline
90
4
70
1
43
0.0
10
145.65000167638061
20
-250.03340786017452
10
145.65000167638061
20
-253.96659994803397
42
0.39643457084880407
10
149.35000167638066
20
-253.96659994803397
10
149.35000167638066
20
-250.03340786017449
42
0.39643457084880662
0
LWPOLYLINE
5
128
100
AcDbEntity
8
0
100
AcDbPolyline
90
4
70
1
43
0.0
10
105.65000167638061
20
-210.03340786017452
10
105.65000167638061
20
-213.96659994803397
42
0.39643457084880407
10
109.35000167638066
20
-213.96659994803397
10
109.35000167638066
20
-210.03340786017449
42
0.39643457084880662
0
LWPOLYLINE
5
129
100
AcDbEntity
8
0
100
AcDbPolyline
90
4
70
1
43
0.0
10
95
20
-200
10
120
20
-200
10
120
20
-225
10
95
20
-225
0
LWPOLYLINE
5
130
100
AcDbEntity
8
0
100
AcDbPolyline
90
4
70
1
43
0.0
10
119.35000167638066
20
-253.96659994803397
10
119.35000167638066
20
-250.03340786017449
42
0.39643457084880662
10
115.65000167638061
20
-250.03340786017452
10
115.65000167638061
20
-253.96659994803397
42
0.39643457084880407
0
LWPOLYLINE
5
131
100
AcDbEntity
8
0
100
AcDbPolyline
90
4
70
1
43
0.0
10
100
20
-240
10
100
20
-265
10
75
20
-265
10
75
20
-240
0
LWPOLYLINE
5
132
100
AcDbEntity
8
0
100
AcDbPolyline
90
4
70
1
43
0.0
10
105
20
-265
10
105
20
-240
10
130
20
-240
10
130
20
-265
0
LWPOLYLINE
5
133
100
AcDbEntity
8
0
100
AcDbPolyline
90
4
70
1
43
0.0
10
-85
20
-225
10
-85
20
-200
10
-60
20
-200
10
-60
20
-225
0
LWPOLYLINE
5
134
100
AcDbEntity
8
0
100
AcDbPolyline
90
4
70
1
43
0.0
10
-115
20
-200
10
-90
20
-200
10
-90
20
-225
10
-115
20
-225
0
LINE
5
135
100
AcDbEntity
8
0
100
AcDbLine
10
-120
20
-200
30
0
11
-120
21
-225
31
0
0
LWPOLYLINE
5
136
100
AcDbEntity
8
0
100
AcDbPolyline
90
4
70
1
43
0.0
10
-30
20
-200
10
-30
20
-225
10
-55
20
-225
10
-55
20
-200
0
LINE
5
137
100
AcDbEntity
8
0
100
AcDbLine
10
-145
20
-225
30
0
11
-145
21
-200
31
0
0
LINE
5
138
100
AcDbEntity
8
0
100
AcDbLine
10
-145
20
-200
30
0
11
-120
21
-200
31
0
0
CIRCLE
5
139
100
AcDbEntity
8
0
100
AcDbCircle
10
-102.49999832361937
20
-212.00000390410423
30
0
40
3.75
210
0
220
0
230
1
0
CIRCLE
5
140
100
AcDbEntity
8
0
100
AcDbCircle
10
-72.499998323619366
20
-212.00000390410423
30
0
40
3.75
210
0
220
0
230
1
0
CIRCLE
5
141
100
AcDbEntity
8
0
100
AcDbCircle
10
-42.499998323619366
20
-212.00000390410423
30
0
40
3.75
210
0
220
0
230
1
0
LINE
5
142
100
AcDbEntity
8
0
100
AcDbLine
10
-128.74999832361937
20
-212.00000390410423
30
0
11
-128.74999832361937
21
-225
31
0
0
LINE
5
143
100
AcDbEntity
8
0
100
AcDbLine
10
-136.24999832361937
20
-225
30
0
11
-136.24999832361937
21
-212.00000390410423
31
0
0
ARC
5
144
100
AcDbEntity
8
0
100
AcDbCircle
10
-132.49999832361937
20
-212.00000390410423
30
0
40
3.75
210
0
220
0
230
1
100
AcDbArc
50
0
51
180
0
LINE
5
145
100
AcDbEntity
8
0
100
AcDbLine
10
-120
20
-225
30
0
11
-128.74999832361937
21
-225
31
0
0
LINE
5
146
100
AcDbEntity
8
0
100
AcDbLine
10
-136.24999832361937
20
-225
30
0
11
-145
21
-225
31
0
0
LWPOLYLINE
5
147
100
AcDbEntity
8
0
100
AcDbPolyline
90
8
70
1
43
0.0
10
-48.699999999999974
20
-271.30000000000007
10
1.3000000000000966
20
-271.30000000000007
10
1.3000000000000966
20
-241.3000000000001
10
-48.699999999999974
20
-241.3000000000001
10
-48.699999999999974
20
-251.3000000000001
10
-51.699999999999946
20
-251.3000000000001
10
-51.699999999999946
20
-261.30000000000007
10
-48.699999999999974
20
-261.30000000000007
0
LINE
5
148
100
AcDbEntity
8
0
100
AcDbLine
10
-8.9999999999999147
20
-256.30000000000007
30
0
11
-8.9999999999999147
21
-261.55000000000007
31
0
0
LINE
5
149
100
AcDbEntity
8
0
100
AcDbLine
10
-8.9999999999999147
20
-261.55000000000007
30
0
11
-5
21
-261.55000000000007
31
0
0
LINE
5
150
100
AcDbEntity
8
0
100
AcDbLine
10
-5
20
-261.55000000000007
30
0
11
-5
21
-256.30000000000007
31
0
0
LINE
5
151
100
AcDbEntity
8
0
100
AcDbLine
10
-8.9999999999999147
20
-256.30000000000007
30
0
11
-8.9999999999999147
21
-251.05000000000013
31
0
0
LINE
5
152
100
AcDbEntity
8
0
100
AcDbLine
10
-8.9999999999999147
20
-251.05000000000013
30
0
11
-5
21
-251.05000000000013
31
0
0
LINE
5
153
100
AcDbEntity
8
0
100
AcDbLine
10
-5
20
-251.05000000000013
30
0
11
-5
21
-256.30000000000007
31
0
0
LWPOLYLINE
5
154
100
AcDbEntity
8
0
100
AcDbPolyline
90
8
70
1
43
0.0
10
-108.69999999999997
20
-241.3000000000001
10
-108.69999999999997
20
-251.3000000000001
10
-111.69999999999995
20
-251.3000000000001
10
-111.69999999999995
20
-261.30000000000007
10
-108.69999999999997
20
-261.30000000000007
10
-108.69999999999997
20
-271.30000000000007
10
-58.699999999999974
20
-271.30000000000007
10
-58.699999999999974
20
-241.3000000000001
0
LINE
5
155
100
AcDbEntity
8
0
100
AcDbLine
10
-68.999999999999986
20
-261.55000000000007
30
0
11
-65
21
-261.55000000000007
31
0
0
LINE
5
156
100
AcDbEntity
8
0
100
AcDbLine
10
-65
20
-261.55000000000007
30
0
11
-65
21
-256.30000000000007
31
0
0
LINE
5
157
100
AcDbEntity
8
0
100
AcDbLine
10
-68.999999999999986
20
-256.30000000000007
30
0
11
-68.999999999999986
21
-251.05000000000013
31
0
0
LINE
5
158
100
AcDbEntity
8
0
100
AcDbLine
10
-68.999999999999986
20
-256.30000000000007
30
0
11
-68.999999999999986
21
-261.55000000000007
31
0
0
LINE
5
159
100
AcDbEntity
8
0
100
AcDbLine
10
-68.999999999999986
20
-251.05000000000013
30
0
11
-65
21
-251.05000000000013
31
0
0
LINE
5
160
100
AcDbEntity
8
0
100
AcDbLine
10
-65
20
-251.05000000000013
30
0
11
-65
21
-256.30000000000007
31
0
0
CIRCLE
5
161
100
AcDbEntity
8
0
100
AcDbCircle
10
-12.499998323619366
20
-212.00000390410423
30
0
40
3.7500000000000084
210
0
220
0
230
1
0
CIRCLE
5
162
100
AcDbEntity
8
0
100
AcDbCircle
10
17.500001676380634
20
-212.00000390410423
30
0
40
3.750000000000016
210
0
220
0
230
1
0
CIRCLE
5
163
100
AcDbEntity
8
0
100
AcDbCircle
10
47.500001676380634
20
-212.00000390410423
30
0
40
3.7499999999999938
210
0
220
0
230
1
0
CIRCLE
5
164
100
AcDbEntity
8
0
100
AcDbCircle
10
77.500001676380634
20
-212.00000390410423
30
0
40
3.7499999999999951
210
0
220
0
230
1
0
ENDSEC
0
SECTION
2
OBJECTS
0
DICTIONARY
5
C
100
AcDbDictionary
3
ACAD_GROUP
350
D
3
ACAD_MLINESTYLE
350
17
0
DICTIONARY
5
D
100
AcDbDictionary
0
DICTIONARY
5
1A
330
C
100
AcDbDictionary
0
DICTIONARY
5
17
100
AcDbDictionary
0
ENDSEC
0
EOF
